<?xml version="1.0" standalone="no"?>
<!DOCTYPE svg PUBLIC "-//W3C//DTD SVG 20010904//EN"
 "http://www.w3.org/TR/2001/REC-SVG-20010904/DTD/svg10.dtd">
<svg version="1.0" xmlns="http://www.w3.org/2000/svg"
 width="1170.000000pt" height="1170.000000pt" viewBox="0 0 1170.000000 1170.000000"
 preserveAspectRatio="xMidYMid meet">
<metadata>
Created by potrace 1.11, written by Peter Selinger 2001-2013
</metadata>
<g transform="translate(0.000000,1170.000000) scale(0.100000,-0.100000)"
fill="#000000" stroke="none">
<path d="M3553 11604 c-51 -51 -93 -100 -93 -109 0 -8 -4 -15 -10 -15 -5 0
-10 -6 -10 -14 0 -8 -21 -36 -47 -63 -101 -104 -164 -178 -183 -213 -13 -25
-4 -42 11 -20 8 11 12 12 16 3 6 -17 23 -17 23 0 0 7 9 23 20 35 11 12 20 25
20 29 0 4 14 24 30 43 16 19 30 41 30 48 0 6 7 12 16 12 16 0 144 125 144 141
0 5 4 9 9 9 9 0 -8 -59 -19 -70 -3 -3 -12 -24 -20 -48 -7 -23 -25 -55 -39 -71
-33 -36 -54 -71 -46 -79 3 -4 10 0 15 8 5 8 11 12 14 9 3 -3 -3 -15 -14 -27
-11 -12 -20 -34 -20 -50 0 -16 -9 -37 -20 -47 -24 -22 -24 -70 0 -70 18 0 26
-43 11 -58 -6 -6 -11 -21 -11 -34 0 -29 -28 -63 -46 -56 -9 3 -14 -2 -14 -15
0 -12 -9 -36 -19 -54 -25 -44 -54 -165 -47 -199 3 -15 3 -42 0 -60 -5 -31 -9
-34 -40 -35 -29 0 -34 3 -34 23 0 13 -4 23 -10 23 -5 0 -10 -4 -10 -10 0 -15
-27 -12 -33 3 -3 8 -1 20 4 28 5 8 9 28 9 46 0 17 5 35 10 38 6 3 10 22 10 41
0 19 -4 34 -10 34 -5 0 -10 -13 -10 -30 0 -16 -4 -30 -10 -30 -5 0 -10 -18
-10 -39 0 -22 -4 -43 -10 -46 -5 -3 -10 -17 -10 -31 0 -21 -5 -24 -36 -24 -36
0 -73 15 -86 34 -4 6 -5 35 -1 64 4 36 2 52 -6 52 -6 0 -11 -13 -11 -29 0 -17
-4 -33 -10 -36 -5 -3 -10 -15 -10 -26 0 -17 -5 -19 -42 -14 -78 9 -187 32
-200 42 -7 6 -31 13 -53 16 -57 8 -99 19 -105 28 -3 4 -32 10 -65 14 -33 3
-84 9 -113 12 -29 3 -55 9 -58 14 -3 5 -14 9 -25 9 -10 0 -19 4 -19 8 0 5 -17
9 -37 10 -20 1 -41 6 -47 12 -5 5 -21 10 -34 10 -13 0 -36 8 -50 18 -24 16
-45 19 -77 12 -22 -5 -36 1 -29 13 4 6 4 9 -1 5 -4 -4 -17 -2 -29 4 -11 6 -33
11 -48 10 -28 -2 -39 13 -16 20 8 3 4 9 -10 17 -16 8 -22 9 -22 0 0 -12 -79
-3 -94 12 -6 5 -27 9 -47 9 -48 0 -54 10 -23 43 13 14 24 28 24 30 0 3 -15 7
-34 9 -23 2 -32 0 -29 -8 7 -18 -14 -26 -37 -14 -11 6 -38 29 -59 50 -22 23
-51 41 -65 42 -13 1 -24 7 -23 13 1 5 -3 9 -9 8 -6 -1 -11 5 -11 13 0 7 6 14
14 14 26 0 12 20 -14 21 -16 0 -37 4 -48 9 -19 8 -19 9 -1 9 20 1 20 1 0 16
-23 17 -69 20 -58 4 3 -6 -5 -3 -20 6 -14 10 -26 13 -26 9 0 -5 -4 -4 -8 3 -4
6 -64 26 -132 43 -114 29 -153 37 -260 55 -19 4 -44 10 -55 14 -23 10 -94 26
-185 42 -36 6 -74 15 -85 20 -11 4 -38 10 -60 13 -22 2 -62 10 -90 16 -27 6
-70 15 -95 20 -25 5 -67 14 -95 20 -62 13 -125 25 -188 35 l-47 8 0 -702 0
-701 75 3 c41 2 80 8 87 15 7 7 19 12 28 12 8 0 26 6 40 13 15 8 54 17 88 20
51 6 62 4 62 -8 0 -21 7 -19 36 11 17 17 24 32 21 46 -9 32 3 48 33 48 16 0
32 5 35 10 3 6 26 10 49 10 28 0 48 6 57 17 11 13 11 17 2 20 -21 8 -15 32 19
68 39 44 63 45 72 5 3 -16 12 -30 19 -30 16 0 37 41 37 71 0 23 13 38 53 58
15 8 27 18 27 23 0 4 8 8 19 8 10 0 32 7 47 15 16 8 37 15 47 15 22 0 79 28
89 44 11 17 127 13 139 -5 7 -11 11 -12 17 -1 14 22 62 -6 62 -35 0 -13 4 -32
10 -42 6 -12 5 -29 -3 -50 -10 -27 -9 -33 3 -41 19 -12 55 -3 100 23 19 11 47
19 61 19 21 -2 30 5 43 33 9 19 30 42 45 50 26 13 35 13 82 -1 30 -8 64 -18
77 -21 12 -3 22 -9 22 -14 0 -5 16 -9 35 -9 38 0 70 -14 96 -42 19 -21 40 -23
56 -7 20 20 35 -1 29 -37 -8 -41 2 -87 18 -81 7 3 20 -1 31 -9 16 -12 17 -18
6 -54 -8 -28 -9 -46 -1 -59 14 -26 13 -31 -6 -31 -31 0 -7 -25 33 -35 47 -12
83 -40 83 -67 0 -10 5 -18 10 -18 6 0 10 -13 10 -30 0 -25 -4 -30 -25 -30 -18
0 -25 -5 -25 -20 0 -15 7 -20 28 -20 37 -1 62 -22 62 -54 0 -21 -5 -26 -25
-26 -13 0 -35 11 -49 25 -19 19 -32 24 -50 19 -13 -3 -27 -1 -30 5 -14 23 -26
10 -26 -29 0 -37 -2 -40 -29 -40 -24 0 -30 5 -34 30 -5 22 -12 30 -28 30 -12
0 -23 8 -26 20 -4 16 -13 19 -42 17 -50 -3 -63 -18 -59 -69 2 -36 7 -44 26
-46 44 -7 15 -42 -35 -42 -36 0 -47 -25 -15 -37 41 -16 52 -44 26 -70 -8 -9
-13 -21 -10 -28 2 -7 -6 -24 -19 -40 -18 -20 -23 -34 -18 -56 3 -18 1 -29 -6
-29 -6 0 -11 -12 -11 -26 0 -15 -10 -35 -21 -45 -18 -15 -20 -21 -9 -34 7 -8
21 -15 31 -15 11 0 19 -7 19 -16 0 -18 -23 -44 -39 -44 -31 0 16 -60 51 -64
40 -6 68 -18 68 -30 1 -16 40 34 40 51 0 17 13 31 53 56 40 26 34 61 -12 65
-20 2 -37 -2 -42 -9 -4 -8 -11 -10 -16 -6 -4 4 -2 17 5 27 7 11 12 25 12 31 0
6 7 17 15 26 9 8 19 28 22 44 3 16 13 31 23 34 9 3 23 17 30 31 10 18 21 24
39 23 61 -5 98 2 119 22 13 11 30 20 40 20 47 -3 59 -2 84 4 24 6 26 5 21 -14
-4 -15 -1 -21 11 -21 11 0 16 9 16 29 0 41 39 65 95 59 23 -3 50 -1 60 5 12 7
20 5 26 -4 6 -11 9 -10 15 4 7 19 34 23 50 7 11 -11 64 8 64 23 0 4 10 7 21 7
12 0 29 9 39 20 15 17 21 18 48 8 27 -10 37 -9 69 9 21 12 55 24 76 28 21 4
45 14 53 22 9 9 54 19 117 26 56 7 107 15 112 18 6 4 46 13 90 20 44 6 82 15
85 18 6 7 48 31 54 31 2 0 6 -9 9 -21 8 -29 31 -19 35 14 4 31 13 34 35 10 13
-16 14 -21 2 -43 -16 -27 -19 -60 -7 -60 11 1 67 69 67 83 0 6 10 13 23 15 14
2 22 10 22 23 0 10 2 19 5 19 11 0 55 -49 55 -61 0 -6 14 -24 30 -39 27 -25
30 -34 30 -92 0 -59 -11 -88 -32 -88 -4 0 -8 14 -8 30 0 37 -12 39 -30 5 -17
-31 -28 -32 -32 -3 -2 13 -11 24 -22 26 -17 4 -18 -1 -13 -37 4 -31 2 -41 -9
-41 -8 0 -14 9 -14 20 0 16 -7 20 -30 20 -24 0 -30 4 -30 21 0 27 -24 19 -28
-9 -2 -15 2 -22 12 -22 9 0 16 -7 16 -15 0 -8 5 -15 10 -15 15 0 12 -30 -6
-47 -12 -12 -18 -13 -23 -4 -4 6 -15 9 -23 6 -8 -3 -23 1 -32 10 -14 15 -17
14 -38 -4 -25 -24 -44 -27 -51 -8 -3 9 -7 9 -20 -1 -12 -11 -19 -11 -36 -1
-16 11 -23 10 -38 -2 -10 -8 -27 -14 -38 -13 -11 1 -48 2 -82 3 -50 1 -62 4
-66 19 -2 9 -3 6 -1 -9 2 -22 -3 -27 -44 -39 -26 -7 -54 -17 -62 -20 -72 -34
-156 -43 -171 -18 -9 15 -39 -13 -39 -37 0 -9 -13 -21 -30 -26 -16 -6 -30 -15
-30 -20 0 -5 -9 -9 -20 -9 -14 0 -20 -7 -20 -22 0 -12 -5 -37 -12 -55 -10 -28
-10 -36 1 -42 17 -11 10 -56 -9 -56 -8 0 -17 11 -20 25 -3 14 -14 26 -25 29
-11 2 -26 8 -34 14 -7 6 -27 10 -44 8 -16 -1 -33 3 -37 10 -5 6 -16 9 -25 5
-14 -5 -15 -9 -5 -21 7 -8 10 -30 8 -50 -4 -36 5 -45 43 -45 14 0 19 -7 19
-30 0 -16 5 -30 10 -30 6 0 10 5 10 10 0 6 12 10 26 10 27 0 54 -20 54 -40 0
-8 11 -10 35 -6 29 6 39 3 60 -18 14 -14 25 -32 25 -41 0 -20 29 -19 49 3 9 9
32 23 52 30 42 14 185 16 194 2 3 -5 26 -10 51 -10 52 0 134 -19 134 -31 0 -4
17 -9 38 -11 42 -3 52 -31 13 -36 -26 -4 -51 -24 -51 -41 0 -5 14 -18 30 -28
17 -9 30 -25 30 -33 0 -21 45 -60 68 -60 9 0 42 -9 72 -20 30 -11 74 -20 97
-20 24 0 43 -4 43 -10 0 -5 20 -10 44 -10 47 0 67 -20 45 -46 -6 -8 -8 -22 -5
-31 6 -14 9 -15 15 -4 13 21 24 -5 11 -28 -5 -11 -10 -31 -10 -45 0 -14 -4
-26 -10 -26 -5 0 -10 -9 -10 -20 0 -11 -4 -28 -9 -38 -23 -42 -33 -82 -20 -82
12 0 12 -43 0 -56 -13 -14 -19 -145 -6 -141 5 2 12 14 13 27 2 14 12 31 21 40
17 14 22 28 36 95 7 32 21 70 36 95 5 8 13 25 19 38 5 12 14 22 20 22 5 0 10
9 10 20 0 21 32 84 56 107 7 8 14 21 14 28 0 8 17 32 38 54 20 22 55 59 77 83
22 24 66 57 98 72 55 26 62 36 59 79 -2 20 34 24 40 5 3 -9 9 -8 22 5 21 21
36 22 36 2 0 -9 12 -18 28 -21 15 -3 32 -15 37 -27 6 -12 20 -23 33 -25 14 -2
22 -10 22 -23 0 -10 5 -19 10 -19 6 0 10 -11 10 -25 0 -14 5 -25 10 -25 6 0
10 7 10 15 0 9 9 15 24 15 27 0 43 -16 24 -23 -9 -3 -6 -10 9 -24 12 -11 23
-34 25 -53 2 -28 8 -36 27 -38 13 -2 33 -12 44 -23 14 -13 35 -19 64 -19 40 0
43 -2 43 -28 0 -15 -5 -33 -12 -40 -8 -8 -8 -15 3 -28 16 -19 13 -55 -5 -66
-8 -6 -7 -10 2 -17 8 -4 12 -19 10 -31 -1 -13 3 -25 10 -27 6 -3 12 3 12 12 0
9 8 25 18 36 23 23 28 109 7 109 -21 0 -27 32 -10 49 13 13 17 14 24 2 6 -8
16 -11 31 -6 14 4 20 3 17 -2 -4 -6 4 -8 18 -5 16 3 25 0 25 -9 0 -10 3 -10
12 -1 22 22 45 14 52 -19 3 -17 6 -35 6 -40 0 -13 -42 -49 -58 -49 -7 0 -20
-6 -27 -14 -12 -11 -12 -19 -2 -40 7 -14 15 -26 20 -26 4 0 7 -18 7 -39 0 -47
12 -58 36 -34 13 13 19 14 22 5 6 -19 79 -51 90 -40 11 11 4 48 -8 48 -4 0
-11 7 -14 16 -7 18 19 48 34 39 5 -3 10 1 10 10 0 9 4 14 9 10 6 -3 6 7 0 27
-11 41 -11 47 1 28 8 -12 10 -9 10 13 0 15 3 27 8 28 29 3 57 11 68 20 8 6 13
6 16 0 1 -5 16 -12 31 -15 16 -3 35 -10 42 -16 19 -16 47 -1 43 24 -2 11 -9
20 -16 18 -6 -1 -12 2 -12 8 0 5 5 10 11 10 5 0 7 5 4 10 -3 6 -19 10 -36 10
-16 0 -29 -4 -29 -10 0 -17 -47 -11 -54 6 -5 13 -14 15 -41 10 -31 -6 -35 -5
-37 16 -1 13 -3 32 -4 43 -1 11 -9 37 -18 57 -18 42 -21 78 -6 78 6 0 10 7 10
17 0 9 -3 13 -7 10 -3 -4 -12 2 -20 13 -8 11 -21 20 -29 20 -18 0 -18 15 1 33
7 8 17 26 21 41 3 14 11 27 18 27 48 5 61 3 60 -11 -1 -9 7 -16 17 -16 10 0
15 4 13 8 -3 5 13 6 35 2 37 -6 41 -4 60 27 12 19 22 38 24 43 2 5 18 10 35
11 l32 2 -20 -22 c-11 -12 -20 -26 -20 -32 0 -7 -7 -19 -16 -28 -9 -9 -13 -19
-10 -23 4 -3 11 -1 15 6 4 7 15 10 24 6 14 -5 13 -9 -7 -29 -20 -20 -23 -31
-18 -72 2 -26 9 -49 13 -51 12 -5 11 -42 0 -42 -5 0 -11 6 -14 13 -2 7 -8 8
-13 3 -5 -5 -4 -11 4 -13 6 -3 12 -13 12 -24 0 -10 5 -19 10 -19 6 0 10 5 10
10 0 17 71 5 82 -13 12 -23 30 -21 48 3 8 11 22 20 32 20 10 0 18 6 18 13 0 8
9 22 20 32 28 25 25 35 -10 35 -27 0 -30 -3 -30 -30 0 -27 -3 -30 -30 -30 -23
0 -30 5 -30 19 0 11 -4 23 -10 26 -25 16 9 85 42 85 4 0 8 8 8 18 0 20 18 42
35 42 5 0 4 -4 -4 -9 -18 -11 -6 -61 14 -61 8 0 15 -9 15 -20 0 -24 6 -25 28
-4 13 13 14 21 4 47 -10 26 -9 32 6 43 9 7 22 14 29 14 23 0 23 19 1 39 l-22
21 25 1 c13 1 34 0 47 -1 12 -1 22 3 22 9 0 6 5 11 11 11 7 0 9 -11 6 -30 -5
-22 -3 -30 8 -30 8 0 15 5 15 10 0 6 18 10 40 10 22 0 40 -4 40 -9 0 -17 32
-21 46 -6 18 18 36 19 51 4 8 -8 16 -7 31 2 19 12 24 10 51 -18 16 -18 39 -37
50 -42 23 -13 91 -15 91 -3 0 15 91 12 107 -4 9 -8 23 -12 34 -9 11 4 19 2 19
-4 0 -6 14 -11 30 -11 17 0 30 5 30 10 0 6 5 10 10 10 6 0 10 -13 10 -30 0
-23 4 -30 20 -30 16 0 20 7 20 30 0 23 4 30 20 30 11 0 20 -3 20 -8 0 -4 17
-12 37 -19 28 -9 40 -9 45 0 5 8 13 6 26 -6 10 -10 26 -15 34 -12 20 8 53 -24
40 -37 -9 -9 -5 -48 5 -48 11 0 69 36 80 50 11 13 12 13 13 -2 0 -9 -6 -18
-12 -20 -17 -6 14 -38 36 -38 11 0 16 -9 16 -30 0 -16 -4 -30 -10 -30 -5 0
-10 5 -10 10 0 6 -4 10 -10 10 -5 0 -10 -13 -10 -30 0 -16 5 -30 10 -30 6 0
10 5 10 10 0 6 9 10 20 10 27 0 25 -7 -10 -40 -18 -17 -30 -38 -30 -54 0 -22
4 -26 30 -26 24 0 30 -4 28 -17 -2 -11 3 -18 12 -18 8 0 14 6 13 13 -4 15 14
16 19 1 5 -15 65 15 91 45 15 17 20 18 27 6 5 -8 13 -11 17 -6 4 5 2 11 -4 13
-20 7 -15 32 12 59 24 24 26 24 43 8 12 -13 13 -19 4 -22 -6 -2 -12 -19 -12
-37 0 -19 -5 -37 -11 -40 -22 -14 -1 -30 34 -27 20 2 37 -1 37 -7 0 -5 9 -13
20 -16 11 -3 20 -13 20 -21 0 -17 -37 -19 -43 -1 -6 17 -18 4 -20 -22 -1 -15
-6 -19 -19 -15 -10 3 -18 1 -18 -5 0 -6 4 -11 9 -11 4 0 8 -11 7 -25 -1 -34
16 -35 32 -2 13 26 42 38 42 17 0 -6 38 -10 94 -10 66 0 96 -4 99 -12 4 -10 8
-10 15 1 8 11 14 12 24 4 19 -16 205 -20 220 -5 7 7 16 12 21 12 14 0 37 -27
37 -43 0 -23 49 -28 61 -6 14 28 27 23 21 -8 -4 -23 -2 -25 14 -18 36 15 62
17 68 6 4 -6 27 -11 51 -11 24 0 47 -4 50 -10 3 -5 25 -10 47 -10 29 0 46 -6
59 -21 15 -17 21 -19 40 -9 15 9 23 9 28 1 8 -12 71 -10 71 2 0 17 76 -1 101
-23 31 -28 113 -52 128 -37 6 6 16 4 27 -7 22 -23 60 -37 79 -30 8 4 15 1 15
-5 0 -5 19 -15 43 -21 73 -19 77 -21 77 -34 0 -17 43 -36 80 -36 17 0 30 -5
30 -11 0 -7 15 -10 39 -7 22 2 37 0 35 -4 -7 -11 43 -51 68 -55 12 -2 25 -8
29 -14 3 -6 16 -8 27 -5 13 4 31 1 45 -9 13 -8 26 -12 29 -9 10 10 48 -16 48
-32 0 -8 4 -13 9 -10 5 3 14 -1 21 -9 7 -8 28 -17 49 -21 20 -4 44 -8 55 -10
27 -5 33 -14 9 -14 -21 0 -33 -24 -26 -48 3 -6 10 -9 15 -6 7 4 8 2 4 -4 -3
-6 3 -20 16 -31 12 -12 27 -38 35 -58 16 -47 16 -43 -1 -43 -8 0 -18 -9 -21
-20 -4 -11 -11 -18 -16 -15 -5 4 -9 -7 -9 -23 0 -33 25 -60 60 -65 13 -2 26
-9 28 -15 2 -7 8 -12 13 -12 4 0 6 7 3 15 -4 8 -3 15 0 15 4 0 11 -12 17 -27
8 -22 7 -30 -7 -40 -9 -7 -21 -10 -27 -6 -6 4 -7 1 -3 -6 5 -7 11 -10 14 -7
10 10 41 -25 35 -40 -7 -19 15 -44 38 -44 14 0 19 -7 19 -29 0 -16 4 -41 10
-55 7 -18 6 -26 -1 -26 -8 0 -8 -4 -2 -12 6 -7 11 -38 12 -68 3 -81 3 -80 20
-80 9 0 23 -9 31 -20 9 -12 21 -18 32 -14 12 3 18 0 18 -10 0 -9 -7 -16 -15
-16 -20 0 -65 22 -65 32 0 4 -8 8 -19 8 -11 0 -21 9 -24 21 -3 12 -10 18 -16
15 -5 -4 -12 -2 -16 4 -3 5 -12 10 -20 10 -23 0 -84 44 -85 61 0 28 25 69 43
69 9 0 17 -4 17 -10 0 -5 7 -10 15 -10 25 0 17 14 -16 29 -40 17 -79 0 -79
-36 0 -32 -11 -29 -38 13 -13 19 -36 40 -53 46 -16 5 -29 13 -29 18 0 10 -48
29 -85 32 -16 2 -31 9 -31 16 -1 6 -2 23 -3 37 -1 32 -21 33 -21 1 0 -23 -3
-24 -37 -19 -42 7 -54 13 -35 20 9 4 10 8 2 18 -12 14 -86 9 -106 -7 -15 -11
-44 0 -44 18 0 17 -32 18 -76 2 -28 -10 -34 -9 -56 13 -13 13 -27 31 -30 40
-4 10 -24 19 -52 23 -31 5 -46 12 -46 22 0 21 -34 13 -38 -9 -3 -13 4 -17 30
-17 31 -1 68 -19 68 -34 0 -3 -16 -6 -35 -6 -19 0 -35 5 -35 10 0 17 -48 34
-62 23 -7 -6 -27 -14 -44 -17 -18 -4 -40 -16 -50 -27 -21 -23 -47 -24 -69 -3
-14 15 -18 14 -38 -10 -12 -14 -37 -28 -55 -32 -17 -4 -32 -10 -32 -15 0 -5
-18 -9 -39 -9 -22 0 -41 -5 -44 -12 -4 -10 -7 -10 -18 0 -16 14 -59 16 -59 2
0 -5 -9 -10 -20 -10 -13 0 -20 -7 -20 -20 0 -23 -34 -28 -44 -7 -5 10 -7 10
-12 0 -8 -18 -121 -17 -174 2 -23 8 -47 12 -52 9 -17 -11 -93 -12 -99 -2 -8
13 -39 -2 -39 -19 0 -20 -25 -43 -48 -43 -25 0 -44 23 -36 44 5 13 0 16 -24
16 -17 0 -32 6 -35 13 -3 8 -11 5 -24 -10 -34 -38 -63 -27 -77 30 -5 20 -12
27 -31 27 -14 0 -25 -4 -25 -10 0 -5 -7 -10 -15 -10 -22 0 -63 -43 -67 -69 -3
-23 -52 -60 -63 -49 -4 3 -1 16 5 28 18 33 6 35 -49 9 -40 -19 -53 -31 -62
-59 -13 -37 -74 -100 -97 -100 -17 0 -6 16 38 60 14 14 33 41 42 60 20 43 47
74 71 83 9 3 17 16 17 27 0 29 23 50 54 50 19 0 26 5 26 19 0 15 -6 19 -24 17
-27 -3 -56 -23 -56 -38 0 -11 -64 -78 -74 -78 -13 0 -5 27 14 48 18 19 28 72
14 72 -7 0 -27 -21 -40 -45 -6 -10 -19 -23 -30 -29 -26 -15 -52 -44 -59 -67
-4 -11 -11 -19 -16 -19 -5 0 -9 -5 -9 -11 0 -14 -29 -43 -36 -36 -9 9 5 43 31
73 14 16 25 34 25 41 0 6 14 17 30 25 28 12 43 48 20 48 -5 0 -10 -7 -10 -15
0 -8 -8 -15 -18 -15 -22 0 -55 -27 -67 -55 -8 -19 -9 -19 -12 3 -3 12 -9 22
-14 22 -5 0 -9 18 -9 40 0 22 -4 40 -10 40 -5 0 -10 -10 -10 -23 0 -13 -6 -29
-12 -35 -9 -9 -10 -15 -2 -20 16 -10 26 -90 14 -112 -6 -11 -16 -17 -25 -14
-11 5 -15 23 -15 73 -1 70 -16 106 -43 95 -8 -3 -17 -14 -20 -25 -8 -30 -37
-24 -37 7 0 25 -32 64 -52 64 -5 0 -14 -11 -20 -25 -11 -25 -28 -34 -28 -15 0
6 -9 10 -20 10 -13 0 -20 -7 -20 -20 0 -13 -7 -20 -20 -20 -11 0 -20 -5 -20
-11 0 -6 -6 -9 -12 -7 -7 3 -13 13 -13 24 0 10 -8 20 -17 22 -11 2 -18 -3 -18
-12 0 -9 -4 -16 -10 -16 -5 0 -10 9 -10 19 0 11 -4 21 -9 23 -5 2 -7 15 -4 31
5 23 10 27 39 27 46 0 44 19 -6 68 -44 43 -50 67 -20 77 17 5 18 10 8 28 -6
12 -16 25 -22 29 -15 10 -1 21 28 21 14 0 23 3 20 8 -3 5 0 9 6 9 7 0 9 7 6
17 -4 9 -1 20 6 24 7 4 9 11 6 15 -4 3 -15 -1 -24 -11 -13 -13 -14 -19 -5 -25
8 -5 3 -7 -15 -7 -32 0 -74 23 -74 41 0 7 9 22 21 35 12 12 18 25 14 29 -3 3
-9 2 -13 -3 -11 -16 -71 -34 -78 -24 -9 16 -47 10 -70 -12 -18 -17 -21 -28
-16 -61 4 -32 2 -40 -9 -36 -8 3 -13 16 -12 31 2 24 -1 25 -43 25 -28 -1 -51
5 -62 15 -10 10 -26 17 -34 17 -21 0 -18 -52 4 -77 8 -10 18 -31 22 -48 l6
-30 -15 28 c-9 15 -22 27 -30 27 -8 0 -18 1 -22 2 -12 3 -43 45 -43 57 0 10
-6 12 -42 15 -8 1 -15 -18 -18 -49 -4 -40 -9 -50 -22 -49 -10 1 -18 -2 -18 -7
0 -5 -10 -9 -22 -9 -17 0 -19 3 -10 9 11 6 10 10 -4 15 -10 4 -24 0 -36 -10
-23 -22 -33 -13 -23 23 6 21 9 23 12 11 3 -10 9 -18 14 -18 13 0 11 24 -3 38
-9 9 -9 12 0 12 7 0 12 5 12 10 0 15 -40 12 -41 -2 0 -7 -5 -2 -10 12 -6 13
-7 35 -4 47 3 13 1 24 -5 24 -15 2 -22 4 -48 13 -30 10 -49 -7 -62 -55 -8 -28
-16 -39 -30 -39 -10 0 -21 -9 -25 -19 -4 -13 -12 -18 -22 -14 -11 4 -14 15
-10 40 4 20 2 31 -4 28 -5 -4 -9 -1 -9 5 0 6 -4 9 -8 6 -4 -2 -14 -1 -22 4
-11 7 -11 13 0 39 7 17 16 31 20 31 4 0 10 12 13 26 5 25 -21 64 -42 64 -10 0
-21 -34 -21 -67 0 -26 -38 -42 -51 -22 -6 10 -9 11 -9 2 0 -7 -9 -13 -20 -13
-11 0 -23 -7 -26 -15 -9 -23 -23 -18 -30 10 -4 14 -9 24 -12 21 -8 -9 -51 47
-45 58 4 5 -1 7 -11 3 -10 -4 -16 -2 -15 6 3 26 -2 37 -16 37 -8 0 -15 6 -15
13 0 6 -5 4 -11 -7 -7 -11 -8 -21 -2 -25 20 -13 21 -37 2 -37 -12 0 -18 5 -15
13 3 7 -2 13 -10 13 -15 0 -44 23 -44 34 0 3 8 6 18 6 11 0 24 12 30 26 10 21
9 29 -5 49 -10 14 -24 25 -30 25 -7 0 -13 5 -13 10 0 6 -9 10 -20 10 -11 0
-20 5 -20 10 0 6 -4 10 -10 10 -5 0 -10 -7 -10 -15 0 -21 -45 -65 -65 -65 -8
0 -23 9 -32 20 -19 21 -43 27 -43 9 0 -6 -8 -8 -18 -5 -24 8 -62 -25 -62 -53
0 -33 -26 -54 -55 -47 -14 4 -26 2 -26 -4 -5 -36 -20 -60 -39 -60 -12 0 -23
-12 -31 -35 -7 -19 -21 -37 -31 -41 -10 -3 -18 -9 -18 -14 0 -15 -26 -18 -71
-9 -24 5 -75 12 -114 15 -38 3 -74 9 -79 14 -5 5 -19 4 -32 -2 -17 -8 -24 -19
-24 -40 0 -22 -5 -28 -21 -28 -16 0 -19 -4 -14 -17 4 -10 10 -28 12 -39 3 -12
17 -28 31 -35 15 -8 30 -18 34 -24 4 -5 10 -6 15 -2 4 5 1 12 -7 17 -10 6 -11
13 -5 19 21 21 33 -3 25 -47 -7 -40 -6 -44 15 -52 28 -11 43 -32 27 -38 -17
-5 -15 -22 3 -22 9 0 18 -7 21 -15 4 -8 21 -22 39 -31 18 -8 42 -24 53 -34 12
-11 28 -20 37 -20 9 0 15 -9 15 -21 0 -16 4 -19 20 -14 16 5 20 2 20 -17 0
-32 18 -48 53 -48 22 0 28 -4 25 -17 -3 -18 -58 -32 -58 -15 0 15 -46 32 -57
21 -15 -15 -62 -13 -111 4 -55 19 -154 12 -205 -14 -26 -14 -47 -18 -67 -14
-30 7 -60 -11 -60 -34 0 -14 -6 -14 -29 -1 -24 12 -74 -5 -124 -43 -21 -16
-41 -26 -45 -22 -3 3 0 10 8 15 8 5 11 12 8 16 -10 9 -38 -21 -38 -40 0 -9 -4
-16 -10 -16 -5 0 -10 -4 -10 -10 0 -12 53 -14 64 -2 4 4 29 7 55 8 39 1 54 7
81 32 20 20 43 32 59 32 15 0 32 5 39 12 6 6 30 11 54 10 24 -1 46 3 51 10 7
10 10 10 14 1 3 -9 30 -13 84 -13 43 0 79 -2 79 -5 0 -9 -24 -48 -42 -69 -10
-11 -18 -26 -18 -33 0 -7 -4 -13 -10 -13 -5 0 -10 -11 -10 -24 0 -14 -5 -28
-10 -31 -12 -8 -13 -159 -1 -183 36 -72 61 -142 59 -167 -3 -24 1 -31 20 -33
26 -4 26 -5 6 -48 -15 -32 -34 -45 -34 -24 0 6 5 10 10 10 6 0 10 8 10 19 0
24 -22 32 -125 43 l-41 5 4 -34 c2 -18 8 -33 13 -33 5 0 9 -7 9 -15 0 -19 31
-55 47 -55 14 0 19 -70 6 -70 -25 -1 -34 -18 -22 -43 14 -32 -5 -57 -45 -57
-14 0 -26 -4 -26 -9 0 -5 -10 -11 -22 -13 -20 -3 -23 -8 -20 -40 3 -33 1 -38
-17 -38 -24 0 -29 28 -9 48 9 9 6 12 -16 12 -15 0 -34 -7 -42 -15 -22 -22 -62
-29 -87 -16 -12 6 -48 9 -80 7 -31 -2 -84 3 -118 12 -51 12 -66 13 -100 2 -27
-9 -43 -10 -47 -4 -13 19 -40 22 -67 8 -26 -13 -30 -13 -49 4 -12 11 -28 22
-37 25 -13 4 -15 15 -12 47 5 45 -3 93 -15 86 -10 -6 20 139 31 150 4 4 7 18
7 30 0 13 5 26 10 29 6 3 10 40 10 82 0 71 10 123 31 165 5 10 9 91 9 182 l0
164 -29 5 c-16 3 -35 13 -44 21 -19 19 -27 11 -27 -31 0 -39 -4 -40 -94 -12
l-68 22 6 45 c3 25 11 49 18 53 15 9 92 0 96 -12 2 -5 12 -9 23 -9 10 0 19 -4
19 -9 0 -5 20 -9 45 -9 53 1 53 0 59 133 4 95 19 195 35 236 5 13 21 38 35 54
20 23 26 41 26 76 0 25 2 66 5 90 7 55 -6 80 -29 56 -9 -8 -16 -19 -16 -24 -1
-12 -69 -83 -80 -83 -6 0 -8 11 -4 24 4 17 -1 32 -17 50 -12 14 -26 26 -31 26
-16 0 -8 -33 13 -51 l21 -18 -21 -22 c-15 -16 -18 -26 -11 -40 6 -10 10 -30
10 -44 0 -21 -4 -25 -17 -21 -26 8 -50 -9 -36 -26 6 -7 13 -24 15 -38 2 -17 8
-24 21 -22 13 2 17 -4 17 -26 0 -33 -25 -50 -37 -27 -16 28 -83 23 -83 -5 0
-11 -4 -20 -10 -20 -5 0 -10 5 -10 11 0 6 -8 8 -19 4 -26 -8 -37 12 -17 34 17
19 22 51 7 51 -6 0 -13 -4 -16 -10 -3 -5 -16 -10 -27 -10 -11 0 -29 -10 -39
-22 -23 -25 -35 -18 -20 10 6 12 11 37 11 56 0 34 2 36 33 36 18 0 39 -6 45
-12 10 -10 15 -10 22 2 13 21 13 25 -7 49 -16 19 -21 20 -45 9 -16 -7 -28 -16
-28 -20 0 -5 -11 -8 -24 -8 -35 0 -56 -10 -56 -26 0 -9 -11 -14 -29 -14 -16 0
-31 -5 -33 -12 -3 -9 -29 -11 -85 -9 -75 2 -82 1 -88 -18 -5 -17 -15 -21 -46
-21 -32 0 -39 3 -39 20 0 11 -4 20 -9 20 -5 0 -11 9 -14 20 -4 14 -14 20 -35
20 -17 0 -34 5 -37 10 -7 11 -48 14 -58 4 -10 -10 38 -52 87 -75 34 -16 46
-27 46 -44 0 -30 30 -55 68 -55 30 0 32 -2 32 -37 1 -30 9 -47 39 -80 21 -24
47 -43 57 -43 9 0 26 -7 36 -17 10 -9 28 -21 41 -27 12 -7 23 -18 23 -26 1 -8
2 -21 3 -27 1 -17 16 -16 33 0 18 18 60 28 76 18 10 -6 10 -14 -3 -37 -8 -16
-12 -36 -9 -46 7 -22 -4 -27 -78 -39 -79 -13 -84 -16 -57 -45 23 -24 20 -54
-5 -54 -7 0 -17 7 -20 16 -4 10 -14 14 -26 11 -25 -6 -104 67 -113 105 -4 15
-18 40 -32 56 -14 17 -25 39 -25 50 0 12 -4 24 -10 27 -5 3 -10 22 -10 41 0
29 -3 34 -25 34 -30 0 -47 28 -33 53 5 10 7 29 4 43 -6 21 -12 24 -53 24 -34
0 -50 -5 -64 -21 -24 -27 -55 -19 -87 22 -20 24 -22 32 -12 44 8 9 8 15 2 15
-6 0 -12 -5 -14 -11 -3 -9 -10 -9 -27 0 -29 16 -51 -1 -51 -40 0 -34 -1 -34
-41 -14 -20 11 -35 13 -46 7 -9 -6 -34 -7 -55 -5 l-38 6 0 -46 c0 -41 -5 -51
-47 -94 -27 -27 -67 -57 -90 -67 -24 -11 -43 -23 -43 -28 0 -4 -17 -8 -37 -8
-36 0 -143 -54 -143 -72 0 -4 -24 -8 -52 -8 -44 0 -58 -5 -83 -28 -40 -35 -88
-62 -113 -62 -33 0 -52 -11 -52 -30 0 -23 -26 -44 -45 -36 -12 4 -13 10 -3 31
6 14 9 27 6 30 -11 11 -38 -8 -38 -26 0 -12 -9 -21 -25 -25 -14 -3 -25 -11
-25 -16 0 -15 -32 -37 -52 -38 -13 0 -18 8 -18 30 0 17 -4 30 -10 30 -5 0 -10
-9 -10 -20 0 -11 -4 -20 -10 -20 -5 0 -10 5 -10 10 0 6 -7 10 -15 10 -8 0 -29
13 -46 29 -18 18 -37 27 -46 24 -12 -5 -14 1 -11 28 3 32 1 34 -32 37 -19 1
-45 8 -57 14 -12 6 -29 8 -37 5 -12 -5 -15 0 -13 16 1 16 -4 23 -21 25 -18 3
-22 -1 -22 -23 0 -33 -21 -55 -54 -55 -14 0 -26 -4 -26 -10 0 -5 -4 -10 -10
-10 -5 0 -10 8 -10 18 0 9 -9 23 -20 30 -15 9 -18 19 -14 40 4 19 1 32 -10 41
-17 14 -22 71 -7 71 5 0 11 10 14 23 2 12 8 30 11 39 6 12 2 17 -15 20 -13 2
-28 12 -34 23 -5 11 -22 32 -37 47 -22 21 -28 36 -28 70 0 38 4 45 31 61 17 9
39 17 50 17 20 0 25 20 9 36 -20 20 31 124 61 124 11 0 30 10 42 23 31 32 65
169 37 152 -6 -3 -10 -17 -10 -31 0 -13 -4 -24 -10 -24 -5 0 -10 -7 -10 -16 0
-15 -23 -44 -34 -44 -3 0 -6 9 -6 20 0 11 5 20 10 20 6 0 10 5 10 10 0 19 -32
10 -37 -10 -3 -11 -9 -20 -14 -20 -5 0 -9 9 -9 20 0 11 5 20 12 20 6 0 1 9
-12 20 -13 11 -25 20 -27 20 -10 0 -35 -32 -47 -60 -7 -18 -24 -37 -37 -44
-14 -7 -25 -22 -26 -36 -7 -66 -11 -82 -28 -119 -10 -23 -24 -41 -32 -41 -20
0 -43 -25 -43 -47 0 -10 -14 -32 -30 -50 -30 -32 -41 -85 -20 -98 6 -3 10 -21
10 -40 0 -19 4 -36 9 -40 13 -7 1 -148 -13 -157 -6 -4 -39 -8 -73 -8 -37 0
-63 -5 -65 -11 -3 -9 -9 -9 -25 0 -12 6 -57 11 -100 11 -43 0 -95 5 -116 11
-21 5 -47 7 -57 4 -20 -6 -20 -37 -20 -3761 l0 -3754 3440 0 c1892 0 3440 2
3440 5 0 13 -45 95 -52 95 -4 0 -8 7 -8 16 0 19 -164 184 -183 184 -7 0 -19 9
-27 20 -8 11 -21 20 -29 20 -7 0 -21 8 -30 18 -9 9 -28 23 -43 31 -16 8 -28
18 -28 23 0 4 -6 8 -14 8 -7 0 -27 14 -44 30 -18 17 -35 30 -40 30 -4 0 -28
18 -52 40 -25 22 -48 40 -53 40 -4 0 -64 56 -133 125 -110 111 -123 127 -110
140 8 8 22 15 30 15 9 0 16 5 16 10 0 6 10 10 23 10 26 0 77 21 77 33 0 4 9 7
20 7 11 0 28 4 38 9 9 5 28 13 42 18 14 6 36 15 50 21 14 6 42 15 63 21 20 6
52 16 70 21 18 6 57 10 85 10 29 0 52 4 52 8 0 12 92 52 118 52 12 0 22 5 22
10 0 6 8 10 18 10 9 0 42 9 72 20 30 11 62 20 72 20 9 0 18 3 20 8 3 6 44 23
166 65 17 7 32 15 32 19 0 5 9 8 19 8 11 0 23 5 26 10 3 6 15 10 26 10 18 0
57 17 69 30 3 3 25 12 50 20 25 7 49 17 55 22 5 4 19 8 32 8 13 0 23 5 23 10
0 6 6 10 13 10 23 0 71 28 97 55 13 14 34 25 46 25 13 0 26 4 29 10 5 8 55 35
192 104 13 6 23 14 23 18 0 3 17 12 38 19 20 6 39 15 42 18 3 4 21 14 40 23
38 18 73 43 98 71 9 9 21 17 27 17 6 0 17 9 25 20 8 11 21 20 28 20 16 0 69
36 93 62 9 10 28 18 43 18 19 0 26 5 26 20 0 11 7 20 15 20 26 0 17 -17 -27
-52 -24 -18 -54 -43 -68 -56 -14 -13 -37 -31 -52 -40 -16 -9 -28 -20 -28 -24
0 -4 -6 -8 -14 -8 -8 0 -16 -3 -18 -8 -6 -13 -142 -112 -155 -112 -7 0 -13 -4
-13 -10 0 -5 -8 -10 -18 -10 -10 0 -24 -9 -32 -20 -8 -11 -22 -20 -31 -20 -10
0 -19 -3 -21 -7 -4 -11 -128 -73 -144 -73 -8 0 -14 -3 -14 -8 0 -4 -13 -13
-30 -20 -16 -6 -43 -18 -60 -24 -16 -7 -30 -16 -30 -20 0 -5 -6 -8 -13 -8 -18
0 -67 -24 -67 -32 0 -5 -7 -8 -16 -8 -8 0 -22 -7 -30 -14 -13 -13 2 -14 118
-10 73 3 149 10 168 15 19 5 58 9 85 9 28 1 91 7 140 15 50 8 142 22 205 31
63 9 124 20 135 24 11 5 37 11 58 14 83 13 107 19 113 27 3 5 16 9 30 9 13 0
32 4 42 9 27 14 148 51 166 51 9 0 24 4 34 9 39 20 127 52 197 71 125 35 175
47 175 42 0 -4 4 -2 8 4 4 6 33 14 65 17 45 4 60 2 64 -9 6 -17 40 -19 46 -2
2 7 8 9 13 5 5 -4 4 -11 -2 -15 -11 -7 -34 -45 -34 -56 0 -12 58 -6 62 6 3 7
11 9 24 4 12 -6 15 -10 7 -13 -23 -8 -14 -23 15 -23 16 0 34 8 42 20 18 25 30
26 30 1 0 -11 6 -21 13 -24 7 -2 8 -8 3 -13 -5 -5 -11 -4 -13 4 -9 23 -23 12
-23 -18 0 -16 -4 -30 -10 -30 -5 0 -10 -16 -10 -35 0 -38 10 -44 34 -20 8 8
17 15 20 15 4 0 28 15 56 32 50 34 70 62 70 101 0 13 9 29 20 37 11 8 20 22
20 32 0 10 3 18 8 18 8 0 32 49 32 67 0 7 9 13 19 13 11 0 21 6 24 13 2 6 8 9
12 5 4 -4 -6 -21 -24 -37 -17 -16 -31 -36 -31 -45 0 -9 -4 -16 -10 -16 -5 0
-10 -9 -10 -20 0 -11 5 -20 10 -20 6 0 10 -18 10 -39 0 -22 5 -41 13 -44 8 -3
5 -10 -9 -23 -12 -11 -28 -38 -35 -62 -6 -23 -15 -42 -18 -42 -3 0 -7 -12 -7
-26 -1 -14 -12 -32 -23 -41 -12 -8 -19 -18 -16 -23 3 -5 -6 -20 -20 -34 -26
-26 -32 -46 -15 -46 6 0 10 5 10 10 0 6 10 10 22 10 l22 0 -23 -17 c-51 -40
-101 -92 -101 -107 0 -9 -4 -16 -10 -16 -5 0 -10 -6 -10 -13 0 -7 -9 -22 -19
-34 -10 -11 -21 -29 -23 -39 -2 -10 -10 -18 -17 -16 -7 1 -19 -5 -26 -15 -10
-14 -10 -20 2 -31 13 -13 19 -12 54 8 22 12 43 19 47 15 4 -4 1 -10 -5 -12
-12 -4 -19 -43 -8 -43 8 0 52 48 58 65 10 24 26 9 19 -18 -3 -12 -8 -24 -11
-27 -12 -10 -31 -50 -31 -65 0 -8 -4 -15 -10 -15 -5 0 -10 -7 -10 -15 0 -36
49 -1 79 57 12 25 35 59 51 78 16 19 27 37 24 42 -5 8 39 83 56 93 5 3 10 0
10 -7 1 -7 13 1 28 18 15 17 43 41 62 54 19 13 40 31 46 40 7 8 21 26 33 39
11 13 23 32 26 42 4 11 9 19 13 19 4 0 18 18 32 40 14 22 28 40 32 40 5 0 8 9
8 19 0 11 3 21 7 23 5 2 19 24 32 51 13 26 28 47 33 47 4 0 8 6 8 14 0 8 42
57 93 109 50 52 100 103 109 113 27 31 46 44 63 44 8 0 15 4 15 9 0 5 9 11 20
14 11 3 20 1 20 -4 0 -5 5 -9 10 -9 6 0 10 7 10 15 0 8 7 15 15 15 9 0 19 8
22 18 8 19 28 42 39 42 3 0 4 -18 1 -41 -4 -29 -1 -42 9 -46 8 -3 14 -11 14
-19 0 -8 5 -14 10 -14 6 0 10 5 10 10 0 6 12 10 28 10 20 0 30 7 40 27 6 15
12 33 12 40 0 7 5 13 11 13 5 0 8 4 5 8 -2 4 0 14 5 22 14 23 30 -7 18 -37
-11 -30 -1 -57 16 -43 9 7 20 4 39 -11 20 -16 26 -29 26 -60 0 -37 2 -39 30
-39 23 0 30 -5 30 -19 0 -21 23 -34 36 -21 5 5 21 6 36 3 23 -4 27 -11 30 -42
3 -31 7 -36 31 -39 15 -2 27 1 27 7 0 6 5 11 10 11 6 0 10 -9 10 -20 0 -22 35
-29 42 -8 3 9 10 8 22 -5 10 -10 15 -21 12 -25 -4 -3 -11 0 -15 7 -7 10 -17 5
-44 -20 -32 -31 -34 -36 -22 -53 16 -21 45 -15 45 9 0 11 11 15 40 15 29 0 40
-4 40 -15 0 -8 5 -15 10 -15 6 0 10 -14 10 -31 0 -26 3 -29 20 -24 11 4 20 2
20 -4 0 -6 8 -11 18 -11 10 0 24 -9 32 -20 8 -11 20 -20 28 -20 19 0 50 -32
35 -37 -6 -2 -9 -13 -6 -23 4 -16 14 -20 49 -20 51 0 58 -13 50 -92 -2 -28 0
-48 6 -50 7 -3 7 -21 -2 -56 -15 -57 -10 -73 15 -48 9 9 22 16 28 16 7 0 6 -5
-3 -11 -11 -8 -12 -12 -2 -16 19 -7 14 -23 -7 -23 -11 0 -23 -5 -27 -11 -4 -7
-9 -8 -13 -1 -14 22 -30 15 -64 -27 -19 -24 -50 -49 -68 -56 -19 -7 -59 -23
-89 -35 -30 -12 -70 -25 -87 -27 -18 -3 -33 -9 -33 -13 0 -4 -15 -13 -32 -20
-64 -23 -168 -75 -168 -82 0 -5 -13 -8 -30 -8 -16 0 -30 -3 -30 -7 0 -9 -49
-33 -67 -33 -7 0 -13 -3 -13 -8 0 -4 -15 -12 -32 -18 -121 -42 -140 -51 -212
-96 -33 -21 -64 -38 -71 -38 -6 0 -65 -26 -130 -59 -66 -32 -136 -64 -155 -71
-19 -8 -37 -16 -40 -20 -3 -3 -26 -16 -52 -29 -27 -13 -48 -28 -48 -33 0 -4
-9 -8 -20 -8 -11 0 -20 -4 -20 -9 0 -7 -34 -16 -140 -35 -35 -6 -154 -57 -158
-67 -2 -5 -21 -9 -43 -9 -21 0 -39 -4 -39 -8 0 -5 -22 -15 -50 -22 -27 -7 -50
-17 -50 -22 0 -4 -13 -8 -30 -8 -16 0 -30 -4 -30 -8 0 -5 -12 -15 -26 -22 -21
-12 -27 -12 -34 0 -7 11 -17 8 -50 -15 -23 -16 -51 -30 -62 -32 -11 -2 -26
-10 -35 -19 -8 -8 -28 -18 -44 -21 -16 -3 -29 -9 -29 -14 0 -5 -9 -9 -20 -9
-11 0 -20 -4 -20 -10 0 -7 460 -10 1360 -10 l1360 0 0 1074 c0 942 -2 1075
-15 1086 -8 7 -15 19 -15 27 0 7 -7 16 -15 19 -8 4 -15 12 -15 20 0 8 -4 14
-10 14 -5 0 -10 9 -10 20 0 11 -4 20 -10 20 -5 0 -10 6 -10 13 -1 6 -14 28
-30 47 -17 19 -30 38 -30 43 0 4 -12 20 -26 35 -14 15 -33 39 -42 54 -9 16
-20 28 -24 28 -4 0 -8 6 -8 13 0 6 -14 28 -30 47 -16 19 -30 40 -30 47 0 6 -3
13 -7 15 -5 1 -26 25 -48 53 -22 27 -54 64 -71 82 -17 18 -34 39 -37 47 -3 8
-21 25 -40 38 -19 12 -44 36 -56 53 -11 17 -29 40 -39 51 -10 10 -21 27 -25
37 -3 9 -12 17 -19 17 -8 0 -20 10 -28 22 -8 11 -23 28 -34 37 -38 32 -171
173 -185 195 -7 12 -23 26 -35 32 -11 5 -25 19 -31 32 -5 12 -18 22 -27 22
-10 0 -18 5 -18 11 0 11 -20 35 -131 151 -65 68 -81 79 -105 76 -26 -3 -29 -8
-41 -68 -7 -36 -14 -69 -15 -75 -3 -18 14 -75 22 -75 4 0 10 -17 13 -38 4 -20
11 -66 16 -102 6 -36 12 -74 13 -85 2 -11 8 -24 15 -30 6 -5 13 -28 16 -50 3
-22 9 -52 12 -67 6 -24 4 -28 -13 -28 -11 0 -22 -6 -25 -14 -4 -10 0 -12 16
-8 12 3 25 10 29 16 13 19 20 -1 20 -58 0 -31 5 -59 9 -62 5 -3 7 -9 4 -14 -3
-4 2 -10 10 -14 8 -3 15 -14 15 -24 0 -11 9 -31 20 -45 21 -26 25 -48 13 -61
-4 -3 -8 -14 -9 -24 -2 -9 -8 -18 -13 -20 -6 -2 -11 -10 -11 -18 0 -8 -4 -14
-10 -14 -5 0 -10 6 -10 14 0 7 -10 13 -22 13 -69 1 -67 0 -56 40 7 27 7 38 -1
41 -6 2 -8 8 -5 13 3 6 0 17 -8 26 -11 14 -11 16 2 11 12 -4 16 1 18 21 2 21
-2 27 -18 27 -19 0 -20 -5 -15 -51 4 -34 3 -45 -4 -35 -5 8 -7 18 -5 22 3 4
-4 8 -15 8 -17 0 -21 6 -21 31 0 28 -1 29 -16 14 -9 -9 -19 -13 -23 -9 -3 4 0
9 7 11 6 3 12 9 12 14 0 6 -4 7 -10 4 -5 -3 -10 1 -10 10 0 9 5 13 11 9 8 -5
8 -1 0 14 -6 11 -11 35 -11 52 0 18 -4 29 -10 25 -6 -4 -10 5 -10 21 0 15 -3
24 -6 21 -4 -4 -15 8 -24 26 -23 42 -42 44 -76 10 -28 -28 -76 -40 -67 -17 2
7 -1 15 -7 19 -7 4 -4 13 11 26 12 11 19 22 15 26 -4 4 -11 1 -16 -6 -7 -12
-11 -12 -24 1 -19 19 -6 65 34 118 43 56 53 81 41 93 -14 14 -14 57 -1 57 6 0
10 9 10 20 0 11 -4 20 -10 20 -5 0 -10 -4 -10 -9 0 -5 -11 -4 -25 2 -18 9 -23
17 -19 31 3 10 7 25 8 32 1 7 5 17 9 20 4 4 7 22 7 40 0 18 5 36 10 39 6 3 10
16 10 29 0 12 9 32 21 45 23 25 20 58 -8 87 -13 13 -14 19 -5 22 6 2 12 11 12
21 0 9 9 23 20 31 11 8 20 22 20 32 0 10 5 18 10 18 6 0 10 10 10 23 0 13 6
29 12 35 10 10 10 15 -2 22 -10 7 -11 10 -2 10 6 0 12 6 12 13 0 6 17 27 37
46 33 30 43 34 104 36 36 1 71 5 77 9 20 12 23 -14 7 -71 -9 -32 -19 -69 -22
-83 -3 -14 -14 -37 -24 -52 -19 -26 -26 -78 -11 -78 5 0 73 -63 152 -140 78
-77 151 -142 161 -145 11 -4 19 -12 19 -19 0 -7 23 -36 50 -65 27 -29 50 -56
50 -60 0 -4 27 -35 60 -69 33 -35 60 -66 60 -70 0 -4 34 -42 75 -86 41 -43 83
-91 92 -107 10 -16 23 -29 30 -29 8 0 17 -8 20 -17 8 -20 73 -82 87 -83 4 0
63 -55 130 -123 68 -67 131 -129 142 -138 29 -24 57 -60 79 -102 l20 -38 3
212 2 211 -40 41 c-22 23 -40 47 -40 54 0 6 -13 21 -30 33 -16 12 -30 26 -30
31 0 19 31 21 48 3 9 -11 34 -32 55 -47 l37 -28 0 575 c0 377 -3 576 -10 576
-5 0 -10 -13 -10 -30 0 -23 -4 -30 -20 -30 -11 0 -20 -4 -20 -10 0 -5 -9 -10
-20 -10 -11 0 -20 -4 -20 -10 0 -5 -15 -10 -34 -10 -25 0 -42 8 -65 32 -27 28
-34 31 -51 20 -11 -7 -26 -12 -34 -12 -8 0 -16 -6 -18 -12 -4 -10 -11 -9 -34
2 -16 8 -38 14 -49 15 -10 0 -24 10 -31 22 -6 13 -18 31 -27 41 -18 20 -23 92
-7 92 6 0 10 9 10 19 0 11 -4 23 -10 26 -5 3 -10 19 -10 35 0 24 19 49 100
130 55 54 100 106 100 115 0 24 -30 18 -60 -12 -52 -53 -97 -67 -126 -39 -20
20 -18 39 6 56 23 17 26 43 7 59 -11 8 -18 2 -33 -29 -18 -38 -34 -52 -34 -29
0 6 -6 9 -12 6 -7 -2 -21 3 -31 11 -14 13 -21 13 -41 2 -18 -9 -27 -10 -38 -1
-7 6 -21 17 -31 24 -15 11 -16 17 -7 41 15 39 4 66 -26 66 -13 0 -24 -4 -24
-9 0 -5 -16 -19 -35 -32 -19 -13 -37 -31 -40 -39 -3 -10 -22 -16 -60 -18 -59
-3 -67 4 -35 33 11 10 20 23 20 28 0 13 57 67 70 67 5 0 10 7 10 16 0 11 6 14
23 10 12 -3 16 -3 10 0 -22 10 -14 33 12 40 14 3 25 10 25 14 0 4 16 25 35 46
19 21 35 41 35 44 0 9 73 40 94 40 9 0 28 11 42 25 29 29 37 30 58 10 8 -8 22
-15 30 -15 20 0 20 -1 -7 -52 -21 -42 -25 -88 -6 -88 5 0 9 -8 9 -18 0 -21 38
-42 75 -42 14 0 25 -4 25 -10 0 -5 7 -10 15 -10 46 0 85 -47 54 -66 -8 -5 -8
-9 1 -14 6 -4 12 -21 12 -38 l1 -31 25 20 c14 11 32 33 40 50 8 16 32 48 53
70 35 38 39 47 39 95 0 30 4 54 9 54 5 0 23 13 40 29 l31 29 0 3401 0 3401
-4027 -1 -4028 -1 -92 -94z m-62 -707 c-8 -8 -11 -7 -11 4 0 20 13 34 18 19 3
-7 -1 -17 -7 -23z m96 -16 c-12 -34 -2 -74 14 -51 7 11 8 6 3 -15 -4 -16 -11
-31 -16 -33 -4 -2 -8 -12 -8 -23 0 -10 -4 -19 -10 -19 -5 0 -10 9 -10 19 0 10
-6 21 -14 24 -15 6 -10 57 5 57 5 0 9 5 9 10 0 10 29 60 35 60 2 0 -2 -13 -8
-29z m-207 -20 c0 -11 -4 -23 -10 -26 -5 -3 -10 -14 -10 -23 0 -9 -7 -25 -14
-35 -12 -15 -13 -11 -9 30 3 27 6 54 8 61 7 20 35 14 35 -7z m-2007 -185 c28
-24 29 -46 4 -46 -21 0 -34 14 -41 43 -8 33 1 34 37 3z m2267 -76 c0 -11 -4
-20 -10 -20 -5 0 -10 9 -10 20 0 11 5 20 10 20 6 0 10 -9 10 -20z m0 -69 c0
-6 -4 -13 -10 -16 -5 -3 -10 1 -10 9 0 9 5 16 10 16 6 0 10 -4 10 -9z m-38
-68 c-2 -7 -8 -13 -13 -13 -11 0 -12 54 -2 64 9 9 22 -34 15 -51z m-412 -57
c0 -22 -11 -46 -21 -46 -5 0 -9 14 -9 30 0 20 5 30 15 30 8 0 15 -6 15 -14z
m70 -11 c0 -8 5 -15 10 -15 6 0 10 -7 10 -15 0 -18 -12 -19 -28 -3 -15 15 -16
48 -2 48 6 0 10 -7 10 -15z m-185 -103 c-6 -16 -7 -16 -16 0 -5 9 -6 24 -3 33
7 16 8 16 16 0 5 -9 7 -24 3 -33z m129 22 c9 -3 16 -12 16 -20 0 -8 5 -14 10
-14 6 0 10 8 10 18 0 14 8 19 30 20 17 0 30 -4 30 -9 0 -5 -7 -9 -15 -9 -8 0
-19 -9 -25 -20 -6 -11 -14 -18 -19 -16 -4 3 -15 -4 -25 -16 l-18 -20 -20 22
c-14 15 -18 29 -14 46 7 25 14 28 40 18z m-1049 -364 c3 -5 1 -10 -4 -10 -6 0
-11 5 -11 10 0 6 2 10 4 10 3 0 8 -4 11 -10z m83 -73 c2 -12 -3 -17 -17 -17
-15 0 -21 6 -21 21 0 25 33 22 38 -4z m1417 -27 c-6 -9 -9 -9 -16 1 -10 17 0
34 13 21 6 -6 7 -16 3 -22z m-1575 -34 c0 -22 -41 -52 -54 -39 -14 14 -6 62
12 65 28 7 42 -2 42 -26z m60 -37 c0 -11 -4 -17 -10 -14 -5 3 -10 13 -10 21 0
8 5 14 10 14 6 0 10 -9 10 -21z m1400 -93 c0 -25 -44 -85 -62 -86 -25 0 -22 8
12 40 17 15 30 35 30 44 0 9 5 16 10 16 6 0 10 -6 10 -14z m-80 -192 c0 -11
-28 -33 -34 -27 -13 13 -5 33 14 33 11 0 20 -3 20 -6z m60 -10 c0 -8 -4 -12
-10 -9 -5 3 -10 10 -10 16 0 5 5 9 10 9 6 0 10 -7 10 -16z m-1750 -148 c0 -16
-14 -36 -26 -36 -16 0 -16 2 -8 24 5 14 34 24 34 12z m3200 -36 c13 -9 13 -11
0 -20 -10 -7 -12 -12 -4 -17 11 -8 15 -42 5 -44 -55 -12 -76 5 -44 36 14 14
14 18 2 26 -12 8 -12 10 1 19 8 5 17 10 20 10 3 0 12 -5 20 -10z m-1410 -86
c0 -25 -33 -49 -54 -41 -24 10 -26 60 -3 79 19 17 21 17 39 2 10 -10 18 -27
18 -40z m1980 -26 c0 -12 -28 -9 -35 2 -4 6 -4 18 -1 27 6 14 8 14 21 -3 8
-10 15 -22 15 -26z m131 21 c15 -7 24 -7 35 2 11 9 14 8 14 -8 0 -22 -47 -53
-58 -38 -4 6 -24 10 -45 11 -48 1 -76 24 -30 24 18 0 35 5 38 10 8 13 21 13
46 -1z m-747 -65 c9 -23 8 -24 -14 -24 -11 0 -20 2 -20 4 0 12 13 36 20 36 4
0 11 -7 14 -16z m336 -44 c0 -5 -4 -10 -10 -10 -5 0 -10 5 -10 10 0 6 5 10 10
10 6 0 10 -4 10 -10z m-122 -45 c9 -20 9 -23 -3 -18 -8 3 -15 9 -15 14 0 5
-10 9 -22 9 -19 0 -20 2 -8 10 24 15 36 12 48 -15z m1142 11 c0 -17 -14 -29
-23 -20 -8 8 3 34 14 34 5 0 9 -6 9 -14z m-1642 -30 c3 -13 -1 -17 -14 -14
-11 2 -20 11 -22 22 -3 13 1 17 14 14 11 -2 20 -11 22 -22z m1862 -86 c0 -5
-5 -10 -11 -10 -5 0 -7 5 -4 10 3 6 8 10 11 10 2 0 4 -4 4 -10z m-2010 -58 c0
-10 -35 -31 -53 -32 -16 0 -16 2 -2 24 11 16 22 22 35 19 11 -3 20 -8 20 -11z
m2050 -22 c0 -5 -9 -10 -20 -10 -11 0 -20 5 -20 10 0 6 9 10 20 10 11 0 20 -4
20 -10z m40 0 c0 -5 -4 -10 -10 -10 -5 0 -10 5 -10 10 0 6 5 10 10 10 6 0 10
-4 10 -10z m-1980 -60 c0 -5 -4 -10 -10 -10 -5 0 -10 5 -10 10 0 6 5 10 10 10
6 0 10 -4 10 -10z m1980 0 c0 -5 -4 -10 -10 -10 -5 0 -10 5 -10 10 0 6 5 10
10 10 6 0 10 -4 10 -10z m-1940 -20 c0 -5 -4 -10 -10 -10 -5 0 -10 5 -10 10 0
6 5 10 10 10 6 0 10 -4 10 -10z m1906 -4 c19 -20 18 -40 -2 -32 -9 3 -18 6
-20 6 -2 0 -4 9 -4 20 0 24 6 25 26 6z m49 -16 c3 -5 1 -10 -4 -10 -6 0 -11 5
-11 10 0 6 2 10 4 10 3 0 8 -4 11 -10z m-75 -34 c0 -2 -3 -11 -6 -20 -9 -23
-34 -20 -34 4 0 13 7 20 20 20 11 0 20 -2 20 -4z m-2940 -36 c0 -11 -4 -20
-10 -20 -5 0 -10 9 -10 20 0 11 5 20 10 20 6 0 10 -9 10 -20z m1100 -110 c0
-5 -4 -10 -10 -10 -5 0 -10 5 -10 10 0 6 5 10 10 10 6 0 10 -4 10 -10z m80
-60 c0 -5 -4 -10 -10 -10 -5 0 -10 5 -10 10 0 6 5 10 10 10 6 0 10 -4 10 -10z
m4115 -410 c-5 -16 -2 -20 17 -20 13 0 29 -9 36 -20 9 -15 19 -18 40 -14 19 4
32 1 41 -10 8 -9 21 -16 30 -16 9 0 22 -5 29 -12 14 -14 16 -68 2 -68 -5 0
-10 -4 -10 -10 0 -5 7 -10 16 -10 10 0 14 -5 10 -15 -13 -34 34 -85 79 -85 7
0 16 -6 18 -12 4 -10 8 -9 16 2 6 8 10 20 10 25 0 6 -3 4 -6 -3 -8 -20 -32 33
-26 57 6 22 29 35 38 21 9 -14 43 -12 48 3 3 9 8 9 17 1 8 -8 9 -17 2 -31 -8
-13 -5 -30 9 -61 11 -24 17 -52 14 -62 -4 -12 -2 -20 4 -20 6 0 11 -12 11 -28
0 -15 7 -38 16 -51 16 -22 15 -26 -5 -67 -23 -45 -37 -59 -26 -26 7 25 -16 77
-35 77 -8 0 -24 -8 -34 -17 -36 -33 -51 -23 -46 30 1 13 -4 22 -12 22 -7 0
-22 11 -32 25 -10 14 -22 25 -25 25 -8 0 -14 -32 -14 -77 0 -19 -6 -33 -13
-33 -17 0 -36 52 -30 83 2 15 0 27 -5 27 -5 0 -9 -4 -9 -10 0 -5 -5 -10 -12
-10 -6 0 -9 3 -5 6 7 7 -25 42 -34 37 -4 -1 -9 4 -13 12 -3 8 -1 15 4 15 14 0
13 47 -1 55 -6 5 -8 22 -4 47 7 40 7 41 -20 36 -19 -4 -28 -1 -32 11 -2 9 -10
27 -16 41 -6 14 -10 28 -9 33 1 4 -1 7 -5 8 -31 3 -68 11 -73 15 -2 3 2 9 9
13 10 7 9 10 -8 16 -28 8 -27 19 5 44 34 26 47 27 39 1z m-5518 -25 c-4 -8
-14 -15 -23 -15 -16 0 -16 2 1 20 20 22 31 20 22 -5z m1106 11 c4 -10 1 -13
-9 -9 -7 3 -14 0 -14 -6 0 -6 -4 -11 -10 -11 -5 0 -10 9 -10 20 0 24 35 28 43
6z m-3823 -10 c0 -3 -4 -8 -10 -11 -5 -3 -10 -1 -10 4 0 6 5 11 10 11 6 0 10
-2 10 -4z m4160 -6 c0 -5 -4 -10 -10 -10 -5 0 -10 5 -10 10 0 6 5 10 10 10 6
0 10 -4 10 -10z m128 -111 c-2 -6 3 -14 11 -17 8 -3 11 0 7 7 -5 7 1 11 13 11
26 0 28 -19 4 -26 -10 -3 -26 -10 -36 -15 -11 -6 -22 -8 -25 -5 -3 3 0 6 6 6
6 0 9 11 6 25 -2 14 0 25 6 25 5 0 9 -5 8 -11z m3989 -36 c-3 -10 -5 -4 -5 12
0 17 2 24 5 18 2 -7 2 -21 0 -30z m-5657 10 c0 -5 -5 -15 -10 -23 -8 -12 -10
-11 -10 8 0 12 5 22 10 22 6 0 10 -3 10 -7z m755 -43 c-3 -5 -13 -10 -21 -10
-8 0 -14 5 -14 10 0 6 9 10 21 10 11 0 17 -4 14 -10z m-999 -95 c14 -14 29
-25 34 -25 6 0 10 -11 10 -25 0 -14 5 -25 10 -25 6 0 10 -7 10 -16 0 -22 -23
-12 -35 14 -8 18 -18 22 -52 22 -23 0 -45 5 -48 10 -6 9 30 70 41 70 3 0 16
-11 30 -25z m215 -115 c5 0 9 5 9 10 0 6 5 10 10 10 6 0 10 -16 10 -35 0 -33
-1 -35 -27 -29 -15 4 -35 15 -45 24 -16 15 -16 18 5 50 l22 35 3 -32 c2 -18 7
-33 13 -33z m5781 -6 c-10 -18 -11 -17 -20 6 -12 32 -4 46 15 27 11 -11 13
-20 5 -33z m348 -123 c0 -16 -6 -31 -13 -34 -9 -3 -12 5 -9 29 5 41 22 45 22
5z m-3320 -40 c0 -5 -7 -12 -16 -15 -22 -9 -24 -8 -24 9 0 8 9 15 20 15 11 0
20 -4 20 -9z m-160 -41 c0 -5 -4 -10 -10 -10 -5 0 -10 5 -10 10 0 6 5 10 10
10 6 0 10 -4 10 -10z m66 -5 c9 -8 13 -23 11 -33 -4 -14 -6 -14 -12 6 -4 12
-11 22 -16 22 -5 0 -9 5 -9 10 0 14 9 12 26 -5z m654 5 c0 -5 -4 -10 -10 -10
-5 0 -10 5 -10 10 0 6 5 10 10 10 6 0 10 -4 10 -10z m1580 -8 c112 -11 160
-21 160 -33 0 -5 11 -7 24 -3 18 4 27 1 36 -15 6 -12 16 -19 22 -15 23 15 138
-37 138 -62 0 -8 9 -14 19 -14 11 0 21 -3 23 -7 2 -5 22 -19 46 -31 24 -13 73
-53 109 -88 36 -35 70 -64 74 -64 15 0 59 -51 59 -68 0 -12 3 -13 8 -5 6 9 12
8 24 -6 10 -12 13 -23 7 -32 -17 -26 -10 -59 11 -59 11 0 20 5 20 10 0 6 12
10 26 10 17 0 28 6 31 20 6 23 35 26 53 5 10 -11 9 -18 -3 -30 -9 -8 -23 -15
-31 -15 -9 0 -16 -7 -16 -15 0 -8 4 -15 9 -15 5 0 17 -7 26 -16 29 -30 -1 -94
-44 -94 -11 0 -23 -4 -26 -10 -3 -5 -21 -10 -40 -10 -19 0 -37 -4 -40 -10 -4
-6 6 -10 24 -10 23 0 30 -5 33 -22 3 -22 4 -21 23 9 16 28 24 32 55 30 19 -1
41 -7 48 -14 14 -13 16 -60 4 -65 -5 -1 -12 -15 -16 -30 -5 -21 -3 -28 8 -28
8 0 16 6 19 13 3 8 11 5 24 -10 22 -24 59 -27 68 -4 8 20 -4 29 -15 11 -5 -8
-12 -11 -16 -7 -4 4 1 15 12 25 10 9 25 28 32 41 12 20 12 25 0 32 -7 5 -16 9
-21 9 -4 0 -12 12 -18 27 -7 20 -13 23 -21 15 -7 -7 -20 -12 -30 -12 -16 0
-23 25 -17 66 0 4 -5 10 -11 14 -16 10 -6 52 16 74 30 31 60 30 109 -4 36 -25
49 -29 60 -20 10 8 19 8 34 1 11 -6 24 -10 28 -9 14 4 53 -22 53 -35 0 -7 -4
-6 -10 3 -5 8 -10 11 -10 5 0 -5 5 -17 10 -25 8 -13 11 -12 25 5 9 11 14 14
10 8 -3 -7 -1 -13 4 -13 6 0 11 4 11 10 0 5 7 7 16 3 16 -6 16 -7 0 -18 -9 -7
-16 -20 -16 -29 0 -10 -4 -15 -9 -12 -4 3 -6 -6 -3 -19 2 -15 0 -25 -7 -25 -6
0 -11 -12 -11 -26 0 -28 35 -67 54 -61 13 4 36 -17 36 -32 0 -6 5 -11 10 -11
6 0 10 -7 10 -15 0 -16 1 -16 38 -20 34 -4 37 -12 10 -37 -13 -13 -22 -22 -19
-21 2 2 11 -3 19 -9 11 -10 18 -8 32 10 10 12 25 22 34 22 19 0 21 16 4 23 -9
3 -6 12 10 28 23 24 23 24 38 4 8 -11 24 -30 35 -43 26 -30 22 -66 -8 -70 -12
-2 -25 -11 -28 -21 -3 -10 -17 -23 -31 -30 -30 -13 -26 -21 19 -36 27 -9 32
-15 29 -38 -3 -29 9 -29 58 2 15 10 21 11 17 4 -6 -9 -1 -13 15 -13 43 0 53
-15 28 -43 -18 -20 -29 -25 -50 -20 -37 7 -60 -28 -35 -53 15 -15 15 -18 -1
-35 -9 -11 -23 -19 -31 -19 -7 0 -13 -4 -13 -10 0 -5 -7 -10 -15 -10 -8 0 -15
-4 -15 -10 0 -5 23 -10 51 -10 47 0 50 -2 44 -21 -6 -17 -3 -20 12 -17 11 2
18 12 19 28 0 29 37 115 53 124 12 8 40 15 91 23 26 4 36 10 37 24 1 10 -2 21
-8 24 -5 4 -9 18 -9 32 0 18 -4 24 -14 20 -23 -9 -39 18 -31 53 5 21 13 30 26
30 10 0 19 5 19 10 0 6 5 10 10 10 6 0 10 -10 10 -22 0 -22 1 -22 24 5 28 32
36 34 36 7 0 -11 -4 -20 -10 -20 -5 0 -10 -7 -10 -15 0 -9 -11 -20 -25 -25
-20 -8 -25 -16 -25 -43 0 -32 2 -33 38 -33 26 1 36 -3 34 -12 -1 -8 2 -11 8
-7 8 5 7 11 -1 21 -9 11 -8 19 6 34 10 11 22 17 26 14 5 -3 9 0 9 5 0 6 6 11
14 11 8 0 17 6 20 13 5 10 7 10 12 0 3 -7 14 -13 23 -13 26 0 31 -9 21 -36 -7
-18 -6 -24 5 -24 7 0 16 -8 20 -19 4 -13 12 -17 30 -14 20 4 23 2 18 -16 -3
-12 -9 -24 -14 -27 -5 -3 -9 -23 -9 -45 0 -32 4 -39 19 -39 21 0 37 -56 25
-92 -4 -15 -3 -18 7 -13 9 6 11 3 6 -9 -6 -14 -3 -17 9 -12 15 6 15 4 3 -11
-9 -11 -10 -14 -1 -9 8 5 12 0 12 -16 0 -19 2 -20 10 -8 7 10 8 -4 3 -45 -4
-43 -13 -66 -30 -83 -25 -25 -30 -38 -11 -26 8 5 9 2 5 -10 -4 -9 0 -31 8 -47
12 -21 13 -34 5 -48 -13 -26 -13 -31 5 -31 8 0 15 -4 15 -9 0 -5 -7 -14 -15
-21 -8 -7 -15 -18 -15 -24 0 -6 5 -4 10 4 5 8 10 10 10 5 0 -6 -7 -21 -16 -33
-9 -13 -13 -30 -10 -38 6 -16 -115 -146 -146 -157 -10 -4 -18 -14 -18 -22 0
-24 -25 -45 -53 -45 -30 0 -53 -25 -49 -55 4 -30 -26 -41 -44 -18 -7 10 -11
24 -9 31 4 10 -4 12 -28 10 -28 -3 -32 -6 -29 -30 2 -16 -1 -28 -7 -28 -6 0
-14 -1 -18 -2 -3 -2 -7 8 -8 21 -1 13 -12 31 -25 41 -24 18 -19 46 7 36 11 -4
13 -1 8 14 -5 14 -2 20 10 20 9 0 15 5 13 12 -7 21 -24 19 -52 -7 -24 -23 -27
-30 -21 -65 4 -22 4 -40 2 -40 -17 0 -37 14 -37 26 0 8 -4 14 -10 14 -6 0 -8
-16 -5 -35 2 -20 0 -46 -4 -59 -12 -31 -88 -109 -100 -102 -5 3 -7 -3 -4 -13
5 -20 -28 -47 -41 -34 -3 3 -6 1 -6 -6 0 -10 -7 -9 -25 3 -21 14 -26 14 -31 3
-3 -8 -4 -18 -3 -23 1 -5 -2 -18 -6 -28 -6 -13 -4 -21 3 -24 7 -2 12 -12 12
-23 0 -16 -15 -24 -41 -21 -4 1 -9 -8 -12 -19 -4 -15 -2 -19 9 -15 8 3 14 1
14 -5 0 -6 4 -8 8 -5 4 2 14 1 22 -5 13 -7 13 -9 0 -10 -8 -1 -18 -1 -22 0
-11 2 -10 -58 2 -99 8 -26 7 -36 -4 -42 -7 -4 -12 -19 -10 -34 1 -15 -1 -23
-6 -18 -5 5 -10 25 -11 44 -2 30 -7 36 -26 38 -13 1 -23 -3 -23 -8 0 -5 6 -7
14 -4 8 3 17 1 20 -4 3 -5 -5 -9 -19 -9 -13 -1 -26 5 -28 11 -8 24 9 160 21
164 13 4 16 30 6 56 -5 13 -10 12 -35 -6 -15 -12 -26 -25 -23 -30 3 -5 0 -15
-6 -23 -14 -17 -50 -20 -50 -5 0 6 5 10 10 10 13 0 13 46 -1 71 -8 17 -6 24
11 39 27 23 19 39 -15 32 -22 -4 -26 -10 -25 -36 5 -85 0 -106 -30 -134 -33
-32 -40 -72 -14 -72 19 0 54 37 54 56 0 7 8 12 19 11 16 -1 17 -6 10 -31 -6
-20 -5 -32 2 -37 12 -7 -23 -66 -48 -82 -7 -4 -19 -14 -27 -22 -19 -19 -26
-19 -26 0 0 8 -4 15 -10 15 -5 0 -10 20 -10 45 0 47 -16 65 -60 65 -29 0 -80
-37 -80 -58 0 -10 -9 -24 -20 -32 -16 -12 -20 -26 -20 -72 0 -32 -4 -58 -10
-58 -5 0 -10 -7 -10 -16 0 -24 -27 -46 -52 -42 -19 2 -24 -2 -26 -27 -2 -16
-12 -35 -23 -43 -10 -7 -19 -20 -19 -28 0 -8 -5 -14 -10 -14 -6 0 -20 -11 -32
-25 -24 -27 -58 -34 -58 -10 0 8 9 30 20 50 20 35 20 35 0 35 -11 0 -20 -5
-20 -11 0 -6 -8 -8 -18 -5 -13 4 -19 1 -19 -9 0 -8 4 -15 9 -15 4 0 8 -7 8
-15 0 -20 -45 -65 -65 -65 -8 0 -15 -9 -15 -20 0 -13 7 -20 20 -20 11 0 20 -4
20 -10 0 -5 -9 -10 -20 -10 -11 0 -20 4 -20 9 0 12 -70 19 -77 8 -9 -15 18
-26 48 -20 42 8 45 -15 7 -50 -36 -33 -37 -39 -38 -154 0 -36 -2 -38 -30 -23
-21 11 -90 -13 -90 -31 0 -7 -9 -20 -21 -30 -14 -12 -20 -27 -17 -48 2 -21 -4
-35 -19 -48 l-22 -19 23 -27 c30 -34 36 -34 36 3 0 31 6 36 28 22 10 -7 11
-30 3 -84 0 -5 -8 -8 -16 -8 -8 0 -15 -9 -15 -20 0 -22 35 -29 43 -7 2 6 8 9
13 4 4 -4 -12 -25 -35 -46 -37 -33 -43 -44 -37 -66 4 -14 0 -45 -9 -72 -14
-42 -14 -47 0 -63 13 -15 20 -16 40 -6 14 6 25 14 25 19 0 4 5 7 10 7 6 0 10
-16 10 -35 0 -19 -4 -35 -9 -35 -13 0 -21 -27 -15 -45 4 -8 18 -15 34 -15 37
0 58 -25 42 -51 -13 -21 -17 -109 -4 -109 4 0 14 9 22 20 8 11 22 20 31 20 10
0 20 6 22 13 8 19 28 -14 21 -35 -4 -15 1 -18 25 -18 24 0 31 4 31 20 0 11 5
20 10 20 9 0 12 -8 9 -26 0 -4 5 -10 12 -15 11 -6 11 -14 1 -42 -20 -55 -16
-76 16 -83 49 -11 54 -14 48 -30 -12 -30 4 -84 25 -84 11 0 19 -4 19 -10 0 -5
-9 -10 -20 -10 -11 0 -20 5 -20 10 0 6 -4 10 -10 10 -14 0 -13 -57 2 -62 7 -3
9 -14 4 -31 -5 -20 -13 -27 -32 -27 -14 0 -23 -4 -19 -9 3 -5 -7 -22 -21 -36
-20 -20 -27 -37 -27 -68 0 -26 -6 -48 -18 -61 -10 -11 -16 -22 -13 -25 4 -3 9
0 11 7 7 19 23 14 23 -8 0 -11 -4 -20 -10 -20 -15 0 -12 -58 3 -63 14 -5 -41
-57 -60 -57 -15 0 -17 -16 -3 -25 6 -3 10 -17 10 -31 0 -13 -4 -24 -10 -24
-16 0 -12 -26 10 -65 17 -29 18 -39 8 -55 -13 -20 -38 -28 -38 -11 0 4 5 23
11 40 14 40 -1 63 -25 38 -9 -9 -16 -21 -16 -27 0 -14 -69 -80 -83 -80 -12 0
-37 -27 -37 -40 0 -7 -13 -25 -30 -40 -16 -15 -30 -31 -30 -34 0 -3 18 -6 40
-6 33 0 40 -3 40 -20 0 -11 -3 -20 -8 -20 -4 0 -13 -13 -20 -29 -7 -17 -25
-34 -42 -39 -24 -9 -29 -8 -33 9 -6 22 -31 24 -70 7 -35 -17 -29 -32 14 -34
60 -2 60 -3 50 -21 -21 -38 -52 -63 -81 -63 -23 0 -44 -14 -95 -66 -36 -36
-65 -70 -65 -74 0 -14 -58 -70 -72 -70 -8 0 -21 -12 -29 -27 -26 -52 -49 -67
-49 -33 0 11 -4 20 -10 20 -5 0 -10 -4 -10 -10 0 -5 -6 -10 -14 -10 -8 0 -46
-31 -84 -69 -38 -37 -81 -71 -94 -74 -14 -4 -43 -22 -64 -41 -52 -46 -147 -96
-187 -99 -17 -1 -38 -8 -45 -14 -7 -7 -21 -13 -31 -13 -10 0 -35 -11 -55 -25
-20 -14 -48 -25 -61 -25 -14 0 -25 -4 -25 -9 0 -13 -52 -21 -71 -11 -10 6 -26
4 -42 -5 -35 -18 -119 -23 -125 -7 -2 7 -21 12 -43 12 l-39 0 -2 43 c0 23 0
54 1 69 2 19 -4 28 -20 33 -18 6 -33 -4 -85 -59 -35 -36 -68 -66 -74 -66 -5 0
-13 -8 -19 -17 -6 -12 -24 -19 -48 -20 -61 -4 -167 -25 -174 -36 -4 -5 -28 -4
-63 4 -43 9 -56 16 -56 31 0 19 -15 24 -25 8 -3 -5 -21 -10 -40 -10 -19 0 -36
-4 -40 -10 -9 -15 -69 -6 -87 14 -16 17 -22 17 -70 6 -29 -7 -56 -18 -60 -23
-3 -6 -36 -10 -72 -9 -35 1 -68 -3 -71 -8 -8 -13 -55 -13 -55 0 0 6 -9 10 -20
10 -11 0 -20 -6 -20 -14 0 -17 -22 -26 -60 -26 -16 0 -32 -5 -36 -11 -5 -9
-33 -10 -98 -4 -50 5 -107 9 -127 9 -20 1 -44 8 -54 16 -11 9 -19 10 -23 3 -4
-6 -20 -12 -37 -15 -16 -3 -38 -9 -47 -13 -14 -5 -18 -2 -18 14 0 17 -6 21
-33 21 -34 0 -87 20 -87 33 0 4 -13 7 -30 7 -16 0 -30 4 -30 10 0 12 -73 32
-80 21 -8 -13 -120 11 -120 26 0 9 -9 11 -30 7 -27 -6 -30 -4 -30 19 0 24 -22
51 -44 53 -6 0 -17 2 -24 2 -8 1 -12 12 -10 25 3 26 -45 82 -62 72 -12 -7 -52
13 -46 24 3 4 -4 15 -15 24 -10 9 -19 24 -19 32 0 9 -13 21 -30 26 -21 8 -30
18 -30 33 0 12 -9 28 -20 36 -11 8 -20 22 -20 32 0 10 -4 18 -9 18 -14 0 -41
64 -31 74 5 5 6 14 4 21 -3 7 -1 16 5 20 17 10 13 45 -4 45 -9 0 -18 12 -21
30 -4 17 -10 30 -15 30 -14 0 -11 38 3 42 21 7 -17 38 -46 38 -14 0 -26 5 -26
10 0 6 5 10 10 10 6 0 10 7 10 16 0 38 75 68 135 54 63 -15 101 -12 141 12 26
15 39 18 42 10 5 -17 42 -15 42 2 0 18 22 26 76 26 24 0 44 5 44 10 0 6 25 10
56 10 45 0 60 4 75 21 17 20 21 21 64 8 25 -7 45 -17 45 -21 0 -16 37 -7 55
12 12 13 21 17 25 10 8 -13 40 -2 40 14 0 12 44 56 55 56 3 0 5 -7 5 -15 0
-18 5 -19 32 -4 12 6 53 13 92 16 39 2 73 9 77 14 5 8 9 8 13 0 4 -6 24 -11
45 -11 27 0 43 7 58 24 18 20 28 23 60 19 34 -4 40 -2 56 26 10 17 25 31 33
31 8 0 14 5 14 10 0 6 11 10 25 10 14 0 37 11 51 25 14 14 33 25 43 25 24 0
61 33 61 54 0 9 6 16 14 16 9 0 12 -7 9 -20 -3 -11 -9 -20 -14 -20 -5 0 -9 -4
-9 -10 0 -18 40 -11 57 10 10 11 23 20 30 20 7 0 13 5 13 10 0 6 9 10 20 10
11 0 20 5 20 10 0 6 6 10 13 10 6 0 28 14 47 30 19 16 43 30 53 30 10 0 27 8
38 18 10 11 32 25 47 32 15 8 41 27 58 43 17 15 37 27 44 25 27 -6 20 28 -14
65 -22 25 -42 37 -60 37 -28 0 -37 20 -8 20 25 1 76 45 67 60 -4 6 -13 9 -21
6 -8 -3 -18 2 -21 11 -4 9 -1 19 5 21 23 7 11 22 -18 22 -27 0 -35 8 -31 33 0
4 -4 7 -9 7 -19 0 -10 17 16 29 27 12 48 6 27 -7 -8 -5 -8 -12 1 -24 15 -21
26 -13 26 19 0 21 4 23 56 23 47 0 57 3 61 20 3 11 9 20 14 20 5 0 9 6 9 14 0
7 7 19 16 27 9 7 13 21 10 34 -5 18 2 25 42 44 41 19 53 21 94 12 62 -14 78
-7 78 34 0 41 9 45 128 52 81 5 92 8 92 24 0 11 5 19 10 19 6 0 10 7 10 15 0
8 14 28 30 43 17 16 30 35 30 41 0 16 -38 52 -72 70 -16 8 -28 18 -28 21 0 4
-13 13 -30 20 -29 12 -41 30 -20 30 20 0 9 52 -16 77 -25 25 -27 25 -92 15
-38 -7 -70 -8 -76 -3 -6 5 -33 10 -61 12 -28 1 -62 10 -77 21 -29 20 -68 24
-68 7 0 -5 -5 -7 -11 -3 -8 4 -7 9 2 15 8 5 12 9 9 10 -3 0 -13 2 -24 4 -15 3
-45 25 -76 55 -3 3 -14 10 -25 16 -11 6 -25 20 -31 32 -6 12 -22 33 -37 48
-15 15 -27 33 -27 40 0 8 -7 14 -16 14 -22 0 -44 25 -44 50 0 21 -81 110 -100
110 -21 0 -40 28 -40 59 0 16 -5 33 -10 36 -11 7 -9 51 5 113 7 31 6 32 -24
32 -34 0 -40 15 -20 53 9 16 9 22 0 25 -6 2 -11 10 -11 18 0 18 -20 54 -41 74
-27 26 -42 63 -41 102 1 20 -3 40 -8 43 -6 3 -10 15 -10 26 0 10 -4 19 -10 19
-5 0 -10 15 -10 33 0 18 -6 39 -12 45 -10 10 -10 15 2 22 12 7 11 12 -8 28
-22 19 -31 72 -12 72 6 0 10 9 10 20 0 11 -4 20 -10 20 -36 0 23 120 66 135
16 5 35 16 42 22 7 7 20 13 28 13 8 0 14 10 14 25 0 18 -5 25 -20 25 -14 0
-20 7 -20 21 0 18 5 21 33 17 17 -3 38 -7 46 -9 8 -2 17 4 19 14 3 13 -3 17
-26 17 -17 0 -33 6 -36 13 -5 10 -7 10 -12 0 -10 -21 -44 -16 -44 7 0 15 -7
20 -29 20 -16 0 -31 5 -33 11 -2 6 -20 11 -41 12 -41 1 -52 17 -11 17 39 0 56
22 41 54 -7 14 -15 26 -19 26 -5 0 -8 11 -8 25 0 26 -17 64 -35 77 -5 4 -18 5
-27 2 -12 -3 -18 0 -18 10 0 12 -36 44 -57 50 -1 1 3 24 8 51 7 35 6 67 -2
108 -9 44 -9 61 0 70 6 6 11 19 11 29 0 10 4 18 8 18 13 0 32 -47 32 -76 0
-19 4 -24 18 -20 9 2 26 7 38 10 12 4 26 18 32 32 16 33 15 91 0 97 -10 3 -10
11 0 39 6 19 12 53 12 76 0 22 5 44 10 47 6 3 10 19 10 34 0 15 4 31 8 36 4 6
14 28 21 50 27 86 64 135 101 135 26 0 110 83 110 110 0 20 9 24 83 34 28 4
37 1 37 -10 0 -8 7 -14 16 -12 29 5 26 -18 -3 -33 -16 -8 -34 -20 -42 -27 -7
-7 -31 -20 -51 -28 -21 -9 -41 -23 -44 -32 -3 -9 -9 -23 -12 -29 -4 -10 13
-13 68 -13 57 0 79 -4 94 -17 32 -30 70 -45 93 -38 19 6 21 2 21 -29 0 -20 5
-36 10 -36 6 0 10 -8 10 -18 0 -10 9 -24 20 -32 12 -8 20 -26 20 -42 0 -21 5
-28 20 -28 13 0 20 -7 20 -20 0 -11 5 -20 10 -20 6 0 10 9 10 20 0 17 7 20 40
20 29 0 43 -5 52 -20 7 -11 21 -20 30 -20 10 0 18 -4 18 -10 0 -5 5 -10 10
-10 6 0 10 7 10 16 0 8 7 22 15 30 13 14 17 14 30 0 8 -8 15 -20 15 -26 0 -7
7 -9 16 -6 9 3 30 6 48 6 25 0 36 6 46 26 12 21 19 24 40 19 14 -4 47 -8 75
-9 38 -1 51 -6 53 -19 2 -9 -1 -17 -7 -17 -6 0 -11 -4 -11 -10 0 -19 38 -10
43 10 5 20 11 20 87 15 100 -8 121 -15 139 -49 17 -31 31 -34 31 -7 0 24 25
34 51 21 11 -6 24 -8 29 -5 5 3 19 0 31 -7 17 -10 23 -10 26 -1 5 14 41 -6 80
-44 25 -26 41 -28 76 -10 14 7 45 12 69 11 23 -1 78 -2 121 -3 70 -1 77 -3 77
-21 0 -16 7 -20 30 -20 17 0 30 -4 30 -8 0 -4 14 -16 30 -25 24 -15 30 -15 30
-4 0 8 14 20 30 27 17 7 30 16 30 21 0 13 38 11 42 -2 3 -9 9 -9 25 0 31 16
53 14 53 -6 1 -41 16 -48 59 -28 23 10 41 22 41 27 0 5 10 8 23 6 35 -4 77 34
77 70 0 17 5 34 10 37 6 3 10 15 10 25 0 10 10 26 22 34 21 15 21 19 12 78 -9
52 -8 65 5 80 9 10 16 24 17 31 0 6 2 18 2 25 1 6 11 12 22 12 11 0 20 6 20
13 0 9 13 14 35 14 19 0 35 -4 35 -8 0 -13 24 -4 85 31 33 19 65 35 70 36 51
5 114 43 87 52 -7 2 -12 23 -12 57 0 41 -4 57 -19 67 -23 17 -39 60 -18 53 8
-4 14 0 14 10 0 10 -10 15 -29 15 -21 0 -28 -5 -28 -20 0 -11 -7 -20 -15 -20
-15 0 -25 6 -60 38 -18 16 -45 15 -45 -2 0 -22 -31 -28 -46 -9 -10 14 -15 16
-25 6 -8 -8 -9 -13 -2 -13 6 0 13 -10 17 -22 5 -18 8 -20 15 -9 7 11 10 9 16
-8 3 -11 10 -21 15 -21 4 0 10 -7 14 -15 7 -19 1 -19 -19 1 -14 14 -20 15 -41
3 -22 -11 -27 -11 -34 1 -6 8 -10 22 -10 31 0 25 -32 33 -47 13 -7 -10 -13
-24 -13 -31 0 -7 -3 -13 -7 -14 -50 -6 -94 -4 -120 7 -17 7 -34 10 -37 6 -3
-3 -6 1 -6 10 0 8 -9 23 -21 34 -17 15 -22 16 -29 4 -7 -12 -13 -9 -34 12 -13
15 -36 30 -50 34 -15 3 -29 10 -32 15 -3 5 -14 9 -25 9 -10 0 -19 5 -19 10 0
6 -8 10 -19 10 -10 0 -24 6 -30 14 -7 8 -48 31 -92 52 -43 20 -79 41 -79 46 0
4 -9 8 -19 8 -11 0 -23 5 -26 10 -3 6 -24 10 -45 10 -21 0 -42 5 -45 10 -3 6
-22 10 -41 10 -20 0 -45 5 -56 11 -16 8 -31 8 -62 -2 -23 -7 -43 -16 -46 -20
-5 -7 -27 -12 -47 -10 -7 0 -13 10 -13 21 0 13 -7 20 -20 20 -11 0 -20 7 -20
15 0 22 -16 18 -44 -10 -26 -26 -60 -33 -71 -15 -3 6 -15 10 -26 10 -10 0 -19
-4 -19 -10 0 -5 -9 -10 -20 -10 -11 0 -20 4 -20 9 0 14 -53 20 -75 8 -11 -6
-43 -12 -71 -13 -44 -2 -55 1 -74 23 -17 19 -27 23 -48 18 -15 -3 -28 -11 -30
-16 -2 -5 -19 -9 -38 -9 -20 0 -45 -5 -57 -11 -13 -7 -9 1 12 19 21 19 29 31
20 34 -19 6 -2 26 35 42 18 8 43 22 55 32 19 17 19 19 5 25 -10 3 -38 1 -63
-3 -25 -5 -62 -12 -81 -15 -19 -3 -39 -9 -45 -13 -10 -8 -88 -15 -136 -12 -17
1 -30 11 -37 27 -15 33 -15 35 4 35 9 0 18 9 21 20 3 12 14 20 28 20 12 0 30
9 40 20 10 11 30 20 45 20 29 0 80 21 80 33 0 4 -20 7 -45 7 -25 0 -45 -4 -45
-10 0 -11 -33 -14 -43 -4 -11 11 5 34 24 34 10 0 19 3 19 8 0 12 50 31 66 25
8 -3 14 0 14 7 0 20 27 40 54 40 23 0 26 3 20 26 -5 18 -1 29 12 39 29 22 34
18 34 -24 0 -31 -6 -43 -32 -64 -17 -15 -29 -29 -26 -33 3 -3 28 -6 56 -7 46
-2 51 0 66 28 17 32 56 55 91 55 11 0 26 9 33 21 15 24 58 23 54 -2 -2 -14 11
-16 88 -17 51 -1 90 3 90 9 0 5 9 9 20 9 11 0 20 -4 20 -10 0 -5 9 -10 20 -10
11 0 20 5 20 10 0 6 14 10 30 10 17 0 30 5 30 10 0 6 8 10 18 10 9 1 33 9 52
20 31 16 54 18 215 15 99 -2 223 -8 275 -13z m-2280 -12 c0 -5 -7 -10 -16 -10
-8 0 -12 5 -9 10 3 6 10 10 16 10 5 0 9 -4 9 -10z m180 0 c0 -5 -4 -10 -10
-10 -5 0 -10 5 -10 10 0 6 5 10 10 10 6 0 10 -4 10 -10z m462 -40 c-9 -16 -23
-30 -29 -30 -18 0 -16 7 10 35 31 33 39 31 19 -5z m-5582 -29 c0 -11 -31 -24
-39 -16 -3 3 1 10 9 15 19 12 30 12 30 1z m5060 -11 c0 -5 -4 -10 -10 -10 -5
0 -10 5 -10 10 0 6 5 10 10 10 6 0 10 -4 10 -10z m700 -14 c0 -18 -15 -36 -29
-36 -10 0 -27 -9 -40 -21 -12 -12 -24 -19 -27 -16 -8 8 8 37 20 37 6 0 18 9
26 20 12 17 50 29 50 16z m-5641 -36 c64 -23 63 -23 55 -44 -12 -32 -134 -13
-134 21 0 8 6 20 13 28 6 8 12 14 12 15 0 0 24 -9 54 -20z m5402 -23 c-10 -9
-11 -8 -5 6 3 10 9 15 12 12 3 -3 0 -11 -7 -18z m-3701 -27 c0 -5 -2 -10 -4
-10 -3 0 -8 5 -11 10 -3 6 -1 10 4 10 6 0 11 -4 11 -10z m-1620 -20 c0 -5 -4
-10 -10 -10 -5 0 -10 5 -10 10 0 6 5 10 10 10 6 0 10 -4 10 -10z m1670 -5 c21
-25 1 -31 -22 -7 -18 18 -19 22 -6 22 8 0 21 -7 28 -15z m296 -19 c18 -19 18
-46 0 -46 -14 0 -26 21 -26 46 0 18 8 18 26 0z m-206 -76 c0 -5 -4 -10 -9 -10
-6 0 -13 5 -16 10 -3 6 1 10 9 10 9 0 16 -4 16 -10z m1318 -57 c-4 -32 -38
-46 -38 -16 0 20 18 43 33 43 4 0 7 -12 5 -27z m4922 -3 c0 -5 -9 -10 -20 -10
-11 0 -20 5 -20 10 0 6 9 10 20 10 11 0 20 -4 20 -10z m-40 -100 c0 -5 -4 -10
-10 -10 -5 0 -10 5 -10 10 0 6 5 10 10 10 6 0 10 -4 10 -10z m-2020 -18 c0
-10 -45 -32 -65 -32 -21 0 -19 28 3 33 30 8 62 7 62 -1z m240 -98 c0 -7 -41
-67 -51 -74 -14 -11 -49 -82 -49 -100 0 -11 -4 -20 -10 -20 -5 0 -10 -15 -10
-34 0 -19 -4 -38 -10 -41 -15 -9 -12 -117 5 -138 7 -11 11 -25 9 -32 -3 -7 0
-16 6 -20 15 -10 -7 -35 -31 -35 -10 0 -42 7 -71 15 -29 8 -82 22 -118 32 -36
10 -73 25 -82 33 -9 9 -31 17 -49 18 -17 1 -37 9 -45 17 -10 9 -25 12 -44 8
-26 -5 -30 -2 -30 16 0 11 5 21 11 21 6 0 8 11 5 28 -7 33 5 55 27 46 15 -5
15 -8 2 -21 -8 -8 -15 -19 -15 -24 0 -11 27 -12 34 -1 2 4 19 9 36 10 33 3 60
22 60 43 0 7 19 32 43 55 23 23 57 61 76 83 18 23 37 41 42 41 5 0 18 8 29 18
53 45 95 61 163 61 37 1 67 -2 67 -5z m2220 -19 c0 -8 -4 -17 -10 -20 -6 -4
-10 5 -10 20 0 15 4 24 10 20 6 -3 10 -12 10 -20z m350 0 c-7 -8 -17 -15 -22
-15 -6 0 -5 7 2 15 7 8 17 15 22 15 6 0 5 -7 -2 -15z m-1270 -145 c0 -5 -2
-10 -4 -10 -3 0 -8 5 -11 10 -3 6 -1 10 4 10 6 0 11 -4 11 -10z m-4540 -40 c0
-5 -4 -10 -10 -10 -5 0 -10 5 -10 10 0 6 5 10 10 10 6 0 10 -4 10 -10z m4780
-36 c0 -3 -6 -12 -14 -19 -17 -18 -29 -8 -13 11 12 14 27 18 27 8z m40 -4 c0
-5 -4 -10 -10 -10 -5 0 -10 5 -10 10 0 6 5 10 10 10 6 0 10 -4 10 -10z m-3679
-41 c29 -31 31 -32 69 -19 33 11 41 11 54 -3 9 -9 16 -23 16 -31 0 -9 5 -16
10 -16 6 0 10 -7 10 -15 0 -8 4 -15 8 -15 15 0 57 -42 54 -53 -2 -6 -1 -21 3
-34 4 -18 12 -23 39 -23 22 0 36 -6 40 -16 9 -24 -2 -52 -24 -59 -11 -3 -20
-17 -22 -33 -2 -19 -10 -28 -25 -30 -13 -2 -23 -6 -24 -10 0 -4 -3 -31 -5 -60
-2 -29 -13 -71 -24 -94 -25 -51 -25 -75 -2 -82 26 -9 45 -64 27 -82 -7 -8 -18
-14 -24 -14 -6 0 -19 -7 -28 -15 -10 -8 -25 -20 -34 -27 -23 -18 -33 -78 -14
-78 10 0 15 -10 15 -30 0 -16 -4 -30 -10 -30 -5 0 -10 -9 -10 -20 0 -11 -3
-20 -7 -20 -5 0 -14 -12 -20 -27 -11 -23 -10 -28 8 -44 12 -11 16 -20 9 -24
-5 -3 -10 -15 -10 -26 0 -10 -7 -19 -15 -19 -19 0 -55 -35 -74 -72 -8 -16 -23
-28 -33 -28 -10 0 -18 -4 -18 -10 0 -5 5 -10 10 -10 6 0 10 -9 10 -20 0 -11
-4 -20 -10 -20 -5 0 -10 -12 -10 -26 0 -27 -26 -61 -38 -49 -4 4 -1 10 6 12
14 5 16 43 2 43 -5 0 -10 10 -10 22 0 20 -1 21 -20 3 -21 -19 -28 -65 -10 -65
15 0 12 -29 -4 -46 -21 -21 -46 -17 -46 6 0 11 -4 20 -10 20 -5 0 -10 -2 -10
-4 0 -2 -3 -11 -6 -20 -4 -11 -1 -16 10 -16 9 0 16 -8 16 -20 0 -11 -4 -20 -9
-20 -5 0 -13 -9 -16 -20 -3 -11 -13 -20 -22 -20 -15 0 -15 -23 2 -62 6 -14 2
-18 -17 -18 -35 0 -41 -10 -17 -31 20 -17 20 -19 5 -35 -16 -15 -18 -15 -35 5
-11 12 -25 19 -34 16 -8 -4 -21 1 -30 9 -9 9 -22 16 -29 16 -7 0 -19 14 -26
30 -14 30 -44 41 -57 20 -3 -5 -22 -10 -41 -10 -27 0 -34 -4 -34 -20 0 -13 7
-20 20 -20 27 0 25 -7 -10 -40 -16 -15 -30 -38 -30 -49 0 -25 28 -40 40 -21 6
11 12 10 26 -5 17 -17 17 -18 -4 -35 -12 -10 -22 -23 -22 -30 0 -20 -27 -40
-54 -40 -14 0 -26 -4 -26 -10 0 -5 -4 -10 -10 -10 -5 0 -10 12 -10 26 0 15
-10 35 -22 45 -24 22 -28 22 -48 8 -11 -8 -12 -12 -2 -16 14 -6 16 -43 2 -43
-5 0 -10 -9 -10 -20 0 -24 -6 -25 -26 -6 -16 16 -19 86 -4 86 6 0 10 11 10 25
0 29 -7 31 -38 9 -14 -10 -22 -25 -22 -45 0 -22 -5 -29 -20 -29 -16 0 -20 7
-20 36 0 42 -19 64 -54 64 -22 0 -26 5 -26 28 0 23 7 32 36 45 19 10 40 15 45
11 6 -3 18 4 28 15 10 12 30 21 45 21 19 0 26 5 26 20 0 23 -34 28 -44 8 -5
-10 -7 -10 -12 0 -3 6 -14 12 -25 12 -14 0 -19 7 -19 28 0 15 5 33 11 39 17
17 7 59 -13 55 -11 -2 -18 3 -18 13 0 25 46 65 75 65 18 0 25 5 25 20 0 11 5
20 10 20 6 0 10 20 10 44 0 28 10 63 28 100 16 31 25 56 21 56 -4 0 -3 14 2
30 6 17 14 30 19 30 4 0 10 12 13 28 3 15 15 38 26 51 12 13 21 31 21 40 0 9
7 26 15 38 11 16 12 22 3 25 -9 3 -8 9 4 21 9 9 21 17 26 17 12 0 25 30 17 39
-3 3 -10 -1 -15 -9 -5 -8 -12 -11 -16 -8 -9 10 21 38 40 38 9 0 19 15 26 40 6
21 15 42 20 45 6 3 10 25 10 48 0 31 5 47 20 57 11 8 20 24 20 36 0 11 9 29
20 39 11 10 20 24 20 32 0 20 28 46 40 38 6 -4 22 1 36 10 19 12 25 24 24 48
-3 58 -1 67 20 67 11 0 20 6 20 13 0 18 24 67 33 67 4 0 7 7 7 15 0 8 5 15 10
15 6 0 10 10 10 21 0 27 47 69 78 69 15 0 22 6 22 20 0 32 47 26 81 -11z
m1039 21 c0 -5 -4 -10 -10 -10 -5 0 -10 -13 -10 -30 0 -23 -5 -30 -19 -30 -24
0 -33 23 -21 55 7 18 17 25 35 25 14 0 25 -4 25 -10z m1160 -15 c0 -12 -24
-55 -31 -55 -14 0 -20 20 -14 40 5 17 45 30 45 15z m2480 -5 c0 -5 -4 -10 -10
-10 -5 0 -10 5 -10 10 0 6 5 10 10 10 6 0 10 -4 10 -10z m-1105 -20 c3 -5 1
-10 -4 -10 -6 0 -11 5 -11 10 0 6 2 10 4 10 3 0 8 -4 11 -10z m945 1 c0 -6 -4
-13 -10 -16 -5 -3 -10 1 -10 9 0 9 5 16 10 16 6 0 10 -4 10 -9z m-3080 -27 c0
-15 -23 -44 -34 -44 -11 0 -6 31 7 45 16 19 27 19 27 -1z m3040 -114 c0 -5 -4
-10 -10 -10 -5 0 -10 5 -10 10 0 6 5 10 10 10 6 0 10 -4 10 -10z m178 -28 c3
-17 -2 -22 -17 -22 -14 0 -21 6 -21 18 0 38 33 41 38 4z m-6398 8 c0 -5 -4
-10 -10 -10 -5 0 -10 5 -10 10 0 6 5 10 10 10 6 0 10 -4 10 -10z m-200 -60 c0
-5 -4 -10 -10 -10 -5 0 -10 5 -10 10 0 6 5 10 10 10 6 0 10 -4 10 -10z m6620
0 c0 -5 -4 -10 -9 -10 -6 0 -13 5 -16 10 -3 6 1 10 9 10 9 0 16 -4 16 -10z
m-20 -20 c0 -5 -4 -10 -10 -10 -5 0 -10 5 -10 10 0 6 5 10 10 10 6 0 10 -4 10
-10z m-6484 -27 c9 -10 36 -18 62 -20 25 -1 51 -4 58 -7 14 -5 9 -89 -6 -94
-5 -2 -3 -13 5 -26 8 -12 12 -26 8 -29 -3 -4 8 -7 25 -7 18 0 32 -4 32 -10 0
-5 -7 -10 -16 -10 -22 0 -44 -25 -44 -49 0 -12 -4 -21 -10 -21 -5 0 -10 7 -10
15 0 22 -33 18 -50 -5 -8 -11 -18 -20 -22 -20 -4 0 -8 9 -8 20 0 11 5 20 10
20 6 0 10 9 10 19 0 11 6 23 12 27 9 6 5 10 -12 14 -19 5 -25 12 -25 34 0 15
-8 33 -17 40 -10 7 -18 19 -18 25 0 8 -7 10 -19 6 -27 -8 -38 51 -15 77 21 22
28 23 50 1z m2664 -18 c0 -8 -4 -15 -10 -15 -5 0 -10 7 -10 15 0 8 5 15 10 15
6 0 10 -7 10 -15z m-20 -55 c0 -5 -4 -10 -10 -10 -5 0 -10 5 -10 10 0 6 5 10
10 10 6 0 10 -4 10 -10z m-2480 -20 c0 -5 -4 -10 -10 -10 -5 0 -10 5 -10 10 0
6 5 10 10 10 6 0 10 -4 10 -10z m80 -40 c0 -5 -9 -10 -20 -10 -11 0 -20 5 -20
10 0 6 9 10 20 10 11 0 20 -4 20 -10z m733 -14 c-2 -3 -3 -13 -3 -22 0 -8 -4
-13 -9 -9 -10 6 -31 -12 -56 -47 -8 -12 -18 -19 -22 -15 -3 4 -1 13 5 19 17
17 15 38 -3 38 -25 0 -14 32 15 43 19 7 76 2 73 -7z m-893 -166 c0 -5 -4 -10
-10 -10 -5 0 -10 5 -10 10 0 6 5 10 10 10 6 0 10 -4 10 -10z m100 -20 c0 -5
-7 -10 -16 -10 -20 0 -44 -24 -44 -44 0 -9 -8 -16 -20 -16 -11 0 -20 -4 -20
-10 0 -5 -7 -10 -16 -10 -11 0 -14 5 -10 16 3 9 6 22 6 30 0 9 10 14 28 14 16
0 34 8 42 20 15 21 50 28 50 10z m180 -12 c0 -10 -4 -18 -10 -18 -5 0 -10 -7
-10 -16 0 -8 -7 -22 -15 -30 -13 -13 -17 -13 -34 3 -18 17 -19 21 -5 49 12 24
21 31 44 31 22 0 30 -5 30 -19z m-140 -24 c0 -7 -27 -34 -34 -34 -3 0 -6 9 -6
20 0 13 7 20 20 20 11 0 20 -3 20 -6z m-60 -75 c0 -11 -24 -39 -34 -39 -12 0
-6 38 7 43 20 9 27 8 27 -4z m-60 -84 c0 -35 -6 -52 -25 -70 -28 -29 -35 -31
-35 -10 0 8 5 15 10 15 6 0 10 11 10 25 0 14 -2 25 -5 25 -10 0 -55 -49 -55
-60 0 -5 -4 -10 -10 -10 -18 0 -11 16 20 48 17 18 30 37 30 42 0 17 24 39 43
40 14 0 17 -9 17 -45z m80 25 c0 -11 -4 -20 -10 -20 -5 0 -10 9 -10 20 0 11 5
20 10 20 6 0 10 -9 10 -20z m180 -20 c0 -11 -4 -20 -10 -20 -5 0 -10 9 -10 20
0 11 5 20 10 20 6 0 10 -9 10 -20z m-160 -40 c0 -11 -4 -20 -10 -20 -5 0 -10
9 -10 20 0 11 5 20 10 20 6 0 10 -9 10 -20z m-40 -10 c0 -5 -4 -10 -10 -10 -5
0 -10 5 -10 10 0 6 5 10 10 10 6 0 10 -4 10 -10z m-60 -76 c0 -3 -7 -12 -15
-21 -20 -19 -32 -10 -14 11 14 15 29 21 29 10z m1784 -320 c13 -5 13 -8 1 -20
-19 -19 -25 -18 -25 6 0 22 1 23 24 14z m416 -14 c0 -16 7 -20 30 -20 17 0 30
5 30 10 0 6 18 10 40 10 33 0 40 -3 40 -20 0 -24 6 -25 26 -5 18 18 34 20 34
4 0 -18 -24 -36 -55 -41 -17 -3 -38 -9 -47 -13 -14 -5 -18 -2 -18 14 0 24 -4
25 -31 11 -15 -9 -24 -6 -44 14 -25 25 -33 56 -15 56 6 0 10 -9 10 -20z m4100
8 c0 -7 -7 -21 -15 -31 -10 -14 -18 -16 -31 -9 -16 9 -15 10 4 16 12 4 22 14
22 22 0 8 5 14 10 14 6 0 10 -6 10 -12z m-3800 -18 c0 -5 -4 -10 -10 -10 -5 0
-10 5 -10 10 0 6 5 10 10 10 6 0 10 -4 10 -10z m-880 -70 c0 -11 -4 -20 -10
-20 -5 0 -10 -13 -10 -30 0 -16 4 -30 9 -30 12 0 7 -41 -8 -72 -16 -32 -26
-34 -48 -12 -14 14 -14 17 6 30 24 17 28 54 6 54 -9 0 -26 -9 -38 -21 -19 -17
-23 -18 -25 -5 -4 17 20 46 38 46 16 0 60 47 60 65 0 8 5 15 10 15 6 0 10 -9
10 -20z m5731 -8 c-5 -15 -4 -38 1 -52 19 -51 -5 -128 -49 -157 -19 -13 -23
-12 -31 4 -11 20 6 93 20 93 5 0 8 12 8 27 0 30 37 113 50 113 5 0 5 -12 1
-28z m-1163 -47 c1 -18 -3 -25 -16 -25 -38 0 -34 17 13 50 0 0 2 -11 3 -25z
m-5417 -148 c-6 -6 -11 -19 -11 -29 0 -10 -4 -18 -10 -18 -5 0 -10 9 -10 20 0
23 33 66 39 49 2 -6 -2 -16 -8 -22z m489 8 c0 -16 -27 -32 -36 -22 -7 6 17 36
29 37 4 0 7 -7 7 -15z m5847 -7 c-9 -5 -14 -14 -11 -21 2 -7 -5 -18 -16 -25
-11 -7 -20 -8 -20 -3 0 5 6 12 13 14 9 4 8 8 -3 16 -8 5 -12 12 -10 14 16 13
46 25 54 20 5 -3 1 -10 -7 -15z m981 -58 c-20 -31 -108 -55 -108 -30 0 6 5 10
10 10 6 0 10 11 10 25 0 14 3 26 8 26 4 1 20 3 36 5 15 1 31 6 34 9 11 11 19
-30 10 -45z m-7288 -10 c0 -5 -9 -10 -20 -10 -11 0 -20 5 -20 10 0 6 9 10 20
10 11 0 20 -4 20 -10z m6180 -69 c-12 -23 -30 -36 -30 -22 0 10 27 41 36 41 3
0 0 -9 -6 -19z m75 9 c-3 -5 -11 -10 -16 -10 -6 0 -7 5 -4 10 3 6 11 10 16 10
6 0 7 -4 4 -10z m85 -80 c0 -5 -4 -10 -10 -10 -5 0 -10 5 -10 10 0 6 5 10 10
10 6 0 10 -4 10 -10z m-6360 -40 c0 -16 4 -30 9 -30 5 0 11 -10 13 -22 4 -32
32 -33 62 -4 30 31 36 32 36 6 0 -11 4 -20 8 -20 4 0 14 9 22 20 19 26 50 26
50 1 0 -11 -6 -22 -12 -25 -10 -5 -10 -7 0 -12 23 -11 13 -54 -18 -81 -34 -28
-37 -38 -15 -47 24 -9 42 3 55 35 14 32 30 39 30 11 0 -10 -9 -24 -20 -32 -11
-8 -20 -22 -20 -32 0 -11 7 -18 20 -18 11 0 20 -4 20 -10 0 -5 -18 -10 -40
-10 -37 0 -40 -2 -40 -26 0 -15 9 -35 21 -45 19 -16 20 -20 6 -34 -21 -20 -27
-19 -27 6 0 18 -2 19 -15 9 -12 -10 -18 -10 -30 0 -12 10 -21 10 -41 1 -32
-14 -31 -15 -37 10 -5 18 -9 19 -27 9 -19 -10 -25 -8 -47 19 -14 17 -32 31
-40 31 -21 0 -51 32 -35 38 6 2 12 20 12 40 1 41 22 78 39 67 6 -3 18 1 27 10
15 14 15 20 3 42 -18 34 -18 101 1 113 24 16 30 12 30 -20z m5180 20 c0 -5 -2
-10 -4 -10 -3 0 -8 5 -11 10 -3 6 -1 10 4 10 6 0 11 -4 11 -10z m1154 -15 c-4
-8 -8 -15 -10 -15 -2 0 -4 7 -4 15 0 8 4 15 10 15 5 0 7 -7 4 -15z m-1334 -19
c0 -3 -4 -8 -10 -11 -5 -3 -10 -1 -10 4 0 6 5 11 10 11 6 0 10 -2 10 -4z m128
-42 c-3 -27 -3 -27 -22 -9 -16 17 -17 20 -2 30 9 7 14 14 12 17 -1 3 1 2 6 -2
5 -4 8 -20 6 -36z m1072 36 c0 -5 -4 -10 -10 -10 -5 0 -10 5 -10 10 0 6 5 10
10 10 6 0 10 -4 10 -10z m140 -60 c0 -5 6 -10 14 -10 7 0 19 -6 26 -14 6 -8
18 -12 26 -9 8 3 14 0 14 -6 0 -6 -4 -11 -9 -11 -5 0 -13 -9 -16 -20 -7 -23
-25 -25 -71 -8 -37 13 -52 49 -32 73 15 16 48 20 48 5z m880 0 c0 -5 -4 -10
-10 -10 -5 0 -10 5 -10 10 0 6 5 10 10 10 6 0 10 -4 10 -10z m-2260 -31 c0
-11 -4 -17 -10 -14 -5 3 -10 13 -10 21 0 8 5 14 10 14 6 0 10 -9 10 -21z
m1064 -25 c3 -8 2 -12 -4 -9 -6 3 -10 10 -10 16 0 14 7 11 14 -7z m-434 -29
c-16 -20 -40 -19 -40 1 0 8 4 13 8 10 4 -2 14 -1 22 4 20 12 26 4 10 -15z
m-186 -30 c-7 -16 -24 -21 -24 -6 0 8 7 13 27 20 1 1 0 -6 -3 -14z m321 3 c25
-7 45 -16 45 -20 0 -4 -9 -25 -20 -45 -11 -21 -20 -45 -20 -54 0 -25 -40 -47
-72 -38 -21 5 -31 2 -52 -20 -17 -18 -24 -34 -20 -44 3 -10 1 -24 -6 -31 -9
-11 -9 -20 1 -38 7 -13 15 -25 18 -28 12 -10 32 -52 22 -46 -6 4 -8 -2 -6 -15
5 -24 15 -38 15 -21 0 15 26 16 35 2 3 -6 -3 -23 -14 -39 -14 -19 -21 -45 -21
-76 0 -28 -6 -52 -15 -61 -13 -14 -15 -13 -15 10 0 14 -6 26 -13 26 -7 0 -12
13 -12 32 0 18 -6 33 -14 36 -8 2 -11 1 -8 -4 3 -5 -3 -27 -13 -48 -10 -23
-19 -33 -22 -25 -4 11 -9 10 -24 -6 -17 -17 -17 -18 -1 -12 13 5 17 1 17 -18
0 -13 -5 -27 -10 -30 -6 -3 -7 -17 -4 -30 3 -14 -1 -38 -10 -56 -9 -18 -14
-35 -11 -37 3 -3 5 0 5 8 0 10 3 10 14 0 8 -6 12 -19 9 -28 -5 -16 -5 -16 8
-1 18 22 55 33 64 19 4 -7 -2 -14 -14 -17 -16 -4 -21 -13 -21 -42 0 -41 -22
-61 -64 -57 -22 3 -26 -1 -26 -21 0 -14 -4 -21 -10 -18 -6 4 -7 11 -4 17 5 7
2 8 -6 3 -10 -6 -12 -4 -7 8 4 11 2 14 -9 10 -18 -7 -18 -19 1 -27 8 -3 15
-16 15 -30 0 -19 -6 -25 -31 -28 -39 -6 -47 11 -23 47 19 28 21 92 4 109 -6 6
-8 -4 -5 -25 3 -30 2 -32 -9 -16 -7 9 -18 17 -25 17 -6 0 -11 5 -11 11 0 5 -4
7 -10 4 -22 -14 -8 15 16 32 20 15 26 30 31 72 3 37 2 51 -6 47 -18 -12 -13
35 6 57 17 18 17 20 -6 38 -13 11 -30 18 -38 15 -9 -4 -13 4 -13 25 0 17 4 28
9 25 5 -4 12 0 14 6 4 10 8 9 16 -2 8 -12 11 -12 11 -1 0 8 6 11 16 7 12 -5
15 -2 10 10 -4 11 -2 15 7 11 8 -3 20 3 27 13 8 11 17 17 22 14 4 -3 8 0 8 6
0 13 27 42 34 38 3 -2 17 13 31 31 36 50 15 67 -27 21 -27 -30 -32 -32 -37
-17 -4 10 -11 18 -16 18 -25 -2 -45 12 -45 31 0 12 3 18 7 15 3 -4 12 1 19 11
15 19 19 46 6 38 -4 -2 -14 -1 -22 5 -10 6 -11 9 -2 9 7 0 4 8 -8 20 -11 11
-20 27 -20 35 0 8 9 15 20 15 11 0 20 6 20 13 0 8 4 7 10 -3 8 -12 10 -8 11
15 1 17 3 22 6 13 2 -10 9 -18 14 -18 6 0 8 4 4 9 -3 5 -1 12 5 16 5 3 10 -1
10 -9 0 -8 8 -14 19 -13 10 0 18 6 18 12 0 30 4 45 14 45 5 0 7 -4 4 -10 -3
-5 -2 -10 4 -10 5 0 12 6 15 13 5 9 7 9 12 0 4 -10 9 -10 20 1 8 8 14 20 14
26 0 6 4 8 10 5 5 -3 15 5 21 19 7 14 17 22 25 19 8 -3 14 0 14 6 0 14 9 14
65 -1z m-456 -85 c1 21 21 23 21 2 0 -8 5 -15 10 -15 25 0 6 -37 -30 -58 -22
-12 -40 -21 -40 -18 0 16 14 36 26 36 22 0 16 26 -6 27 -11 1 -20 -4 -20 -10
0 -7 -4 -6 -10 3 -14 22 -12 33 5 26 10 -3 18 1 22 11 6 15 7 14 14 -3 7 -17
8 -17 8 -1z m-59 -44 c0 -12 -7 -19 -20 -19 -14 0 -20 7 -20 21 0 11 5 17 10
14 6 -3 10 -1 10 5 0 6 5 8 10 5 6 -3 10 -15 10 -26z m459 -82 c-2 -35 1 -43
11 -27 5 8 10 11 10 5 0 -14 -18 -40 -24 -35 -2 3 -6 14 -8 25 -1 11 -7 23
-13 27 -6 5 -5 8 4 8 8 0 11 6 7 16 -3 9 -2 12 5 9 5 -4 9 -17 8 -28z m-5409
3 c0 -5 -4 -10 -10 -10 -5 0 -10 5 -10 10 0 6 5 10 10 10 6 0 10 -4 10 -10z
m5404 -66 c15 -6 15 -8 -1 -20 -23 -17 -39 -18 -24 -1 6 8 8 17 4 20 -8 9 1 9
21 1z m-506 -152 c2 -18 -1 -32 -7 -32 -5 0 -12 -9 -16 -19 -10 -32 -38 -14
-29 18 3 14 7 33 7 41 0 17 17 31 32 27 6 -2 11 -18 13 -35z m1722 -13 c0 -9
-7 -23 -16 -30 -14 -11 -19 -10 -36 11 -15 18 -21 21 -27 11 -5 -8 -11 -9 -15
-3 -3 5 8 15 24 22 17 7 30 16 30 21 0 5 9 4 20 -3 11 -7 20 -20 20 -29z m-42
-135 c4 -25 -22 -33 -81 -26 -32 4 -36 6 -25 19 31 38 101 42 106 7z m-1108
-5 c0 -21 -14 -39 -31 -39 -19 0 -23 8 -14 32 6 14 45 20 45 7z m730 -25 c0
-38 -22 -54 -74 -54 -33 0 -46 4 -46 14 0 8 -3 21 -6 30 -8 20 26 35 84 35 39
1 42 -1 42 -25z m100 -44 c0 -5 -4 -10 -10 -10 -5 0 -10 5 -10 10 0 6 5 10 10
10 6 0 10 -4 10 -10z m-864 -32 c4 -7 3 -8 -4 -4 -15 9 -15 1 -2 -25 8 -15 7
-21 -5 -25 -8 -3 -12 -11 -9 -16 8 -13 -16 -59 -38 -76 -10 -7 -18 -24 -18
-37 0 -13 -4 -27 -10 -30 -5 -3 -10 3 -10 14 0 25 -13 27 -30 6 -11 -13 -10
-18 5 -29 13 -9 16 -19 10 -32 -4 -10 -7 -24 -6 -31 1 -6 -3 -14 -9 -18 -5 -3
-10 -14 -10 -24 0 -22 -57 -84 -70 -76 -5 3 -10 -3 -13 -12 -2 -10 -2 -1 1 21
4 38 29 79 43 70 4 -2 5 4 2 15 -3 10 0 22 6 25 6 4 11 16 11 27 0 11 7 19 18
19 16 1 15 2 -2 15 -18 14 -18 15 5 35 13 11 35 25 48 30 14 7 21 16 17 25 -3
8 0 17 5 21 6 3 8 18 4 33 -4 14 -3 23 1 19 9 -10 36 11 28 23 -5 8 12 49 21
49 2 0 7 -5 11 -12z m-91 -28 c-3 -5 -12 -10 -18 -10 -7 0 -6 4 3 10 19 12 23
12 15 0z m16 -23 c-10 -9 -11 -8 -5 6 3 10 9 15 12 12 3 -3 0 -11 -7 -18z
m-161 -241 c0 -26 -6 -18 -14 19 -5 22 -4 26 4 15 5 -8 10 -24 10 -34z m-215
14 c-3 -5 -12 -10 -18 -10 -7 0 -6 4 3 10 19 12 23 12 15 0z m111 -78 c-14
-13 -23 15 -13 38 l11 25 4 -28 c2 -16 1 -31 -2 -35z m-36 -32 c0 -5 -5 -10
-11 -10 -5 0 -7 5 -4 10 3 6 8 10 11 10 2 0 4 -4 4 -10z m-870 -70 c8 -5 11
-12 8 -16 -4 -3 -14 1 -23 10 -18 17 -9 21 15 6z m-4452 -72 c2 -16 7 -28 12
-28 4 0 11 -36 15 -80 4 -47 13 -87 21 -95 23 -22 18 -94 -8 -116 -11 -11 -24
-19 -27 -19 -3 0 -17 26 -31 57 -14 30 -31 62 -39 70 -26 27 -35 168 -15 231
2 8 16 12 36 10 28 -2 34 -8 36 -30z m197 -98 c3 -5 22 -10 41 -10 34 0 64
-18 64 -38 0 -5 9 -17 20 -27 11 -10 20 -24 20 -31 0 -7 9 -16 20 -19 11 -3
20 -12 20 -18 0 -7 9 -23 20 -37 11 -14 20 -39 20 -57 0 -17 4 -33 9 -35 4 -1
5 -12 0 -23 -7 -19 -8 -19 -8 3 -2 43 -21 21 -21 -24 0 -26 -6 -51 -14 -60
-17 -16 -46 -19 -46 -4 0 6 -13 10 -30 10 -16 0 -30 -4 -30 -10 0 -5 -11 -10
-24 -10 -37 0 -96 28 -96 46 0 9 -8 28 -19 42 -30 44 -55 192 -32 192 6 0 11
16 11 35 0 51 56 107 75 75z m4425 -6 c0 -22 -29 -49 -41 -37 -5 5 -2 17 9 31
20 26 32 28 32 6z m413 -25 c-6 -23 -23 -15 -23 11 0 12 5 17 14 14 8 -3 12
-13 9 -25z m-2873 -34 c0 -8 -4 -15 -10 -15 -5 0 -10 7 -10 15 0 8 5 15 10 15
6 0 10 -7 10 -15z m-1433 -101 c7 -7 13 -17 13 -23 0 -6 9 -15 20 -21 11 -6
20 -17 20 -25 0 -8 7 -15 16 -15 28 0 44 -27 44 -74 0 -35 -4 -46 -15 -46 -9
0 -19 -8 -22 -17 -14 -38 -43 -47 -137 -44 -114 3 -126 6 -126 37 0 13 -4 24
-8 24 -5 0 -14 11 -22 24 -31 59 37 190 105 198 43 6 98 -3 112 -18z m358 -56
c8 -18 20 -24 53 -26 23 -2 42 -8 43 -15 7 -89 4 -150 -8 -162 -7 -8 -13 -19
-13 -25 0 -16 -26 -40 -43 -40 -9 0 -17 -6 -20 -12 -3 -9 -10 -7 -23 8 -14 15
-31 21 -66 22 -27 0 -48 -4 -48 -9 0 -5 -5 -9 -10 -9 -7 0 -10 30 -9 80 1 71
4 80 20 80 11 0 19 6 19 13 0 7 9 23 20 35 11 12 20 26 20 33 0 12 37 49 49
49 4 0 11 -10 16 -22z m3902 -13 c0 -8 -4 -15 -9 -15 -10 0 -11 14 -1 23 9 10
10 9 10 -8z m-3567 -65 c0 -5 -4 -10 -10 -10 -5 0 -10 5 -10 10 0 6 5 10 10
10 6 0 10 -4 10 -10z m500 -61 c-7 -39 -17 -59 -35 -72 -14 -10 -25 -25 -25
-33 0 -8 -9 -14 -20 -14 -26 0 -60 38 -52 58 4 10 7 12 10 4 6 -18 19 -14 25
8 3 11 12 20 21 20 10 0 16 9 16 23 1 28 20 53 45 59 11 2 21 4 23 3 1 -1 -2
-26 -8 -56z m-400 31 c0 -13 -7 -20 -20 -20 -23 0 -25 5 -7 25 17 20 27 18 27
-5z m0 -49 c0 -13 -26 -32 -33 -24 -8 7 11 33 24 33 5 0 9 -4 9 -9z m-1140
-41 c0 -5 -13 -10 -30 -10 -16 0 -30 5 -30 10 0 6 14 10 30 10 17 0 30 -4 30
-10z m5440 -77 c0 -5 -5 -15 -10 -23 -8 -12 -10 -11 -10 8 0 12 5 22 10 22 6
0 10 -3 10 -7z m-4660 -23 c0 -5 -4 -10 -10 -10 -5 0 -10 5 -10 10 0 6 5 10
10 10 6 0 10 -4 10 -10z m4622 -65 c-2 -14 -7 -25 -11 -25 -3 0 -12 -13 -19
-30 -16 -34 -32 -40 -32 -10 0 11 5 20 10 20 6 0 10 6 10 13 0 12 35 57 44 57
2 0 1 -11 -2 -25z m528 -81 c0 -8 -4 -14 -9 -14 -6 0 -9 9 -8 19 1 22 17 18
17 -5z m-86 -40 c9 -24 7 -27 -9 -10 -17 17 -19 26 -6 26 5 0 12 -7 15 -16z
m81 -4 c-3 -11 -2 -20 3 -20 6 0 12 5 14 12 3 7 11 9 24 4 12 -6 15 -10 7 -13
-7 -3 -13 -18 -13 -34 0 -20 -5 -29 -16 -29 -9 0 -25 -10 -35 -22 -11 -11 -22
-18 -27 -13 -4 4 -1 10 6 12 16 6 16 40 -1 46 -27 10 -5 77 25 77 15 0 18 -5
13 -20z m-95 -45 c0 -8 -7 -15 -15 -15 -26 0 -18 20 13 29 1 1 2 -6 2 -14z
m170 -65 c0 -5 -4 -10 -10 -10 -5 0 -10 5 -10 10 0 6 5 10 10 10 6 0 10 -4 10
-10z m40 -89 c0 -21 -16 -30 -42 -23 -24 6 -23 22 2 22 11 0 20 5 20 10 0 6 5
10 10 10 6 0 10 -9 10 -19z m-1797 -66 c-5 -13 -23 -22 -23 -11 0 15 14 35 21
31 4 -3 6 -12 2 -20z m1817 15 c0 -5 -4 -10 -10 -10 -5 0 -10 5 -10 10 0 6 5
10 10 10 6 0 10 -4 10 -10z m-34 -24 c19 -19 18 -61 -2 -80 -20 -20 -34 -20
-34 -1 0 8 -5 14 -11 13 -6 -2 -14 3 -16 10 -3 6 0 12 6 12 6 0 11 14 11 30 0
33 21 40 46 16z m-1848 -52 c-7 -7 -23 -15 -35 -19 -18 -5 -22 -3 -17 9 3 9
10 13 15 10 5 -3 9 -1 9 5 0 5 9 9 20 8 16 -1 17 -4 8 -13z m1842 -84 c0 -5
-4 -10 -10 -10 -5 0 -10 5 -10 10 0 6 5 10 10 10 6 0 10 -4 10 -10z m120 -316
c0 -3 -7 -12 -15 -21 -20 -19 -32 -10 -14 11 14 15 29 21 29 10z m-1297 -277
c5 -12 -43 -77 -57 -77 -3 0 -6 14 -6 30 0 23 4 30 20 30 11 0 20 7 20 15 0
19 16 20 23 2z m-5261 -317 c32 0 58 -4 58 -10 0 -5 6 -10 13 -10 8 0 22 -9
32 -20 10 -11 26 -20 37 -20 10 0 18 -4 18 -10 0 -5 14 -10 31 -10 23 0 30 -4
26 -15 -10 -24 13 -28 33 -5 11 13 21 17 25 10 3 -5 24 -10 46 -10 21 0 39 -4
39 -8 0 -5 11 -14 24 -21 18 -10 28 -10 45 -1 19 10 25 8 40 -9 10 -12 26 -21
35 -21 9 0 16 -4 16 -10 0 -5 14 -10 30 -10 17 0 30 -4 30 -10 0 -5 18 -10 40
-10 22 0 40 -4 40 -10 0 -5 9 -10 19 -10 11 0 21 -6 24 -12 3 -10 11 -10 36
-1 33 12 81 1 81 -19 0 -5 9 -7 19 -3 11 3 25 -1 34 -10 9 -8 27 -15 41 -15
14 0 26 -4 26 -10 0 -6 31 -10 74 -10 58 0 75 -3 80 -16 9 -24 7 -54 -4 -54
-5 0 -10 -7 -10 -15 0 -25 36 -17 51 13 17 34 30 43 48 37 8 -3 18 0 22 7 4 7
12 9 16 4 4 -5 2 -11 -4 -13 -15 -5 -18 -43 -4 -43 5 0 11 6 13 12 4 10 14 8
41 -7 33 -17 37 -24 37 -57 0 -37 1 -38 28 -32 15 4 29 11 30 16 2 4 17 8 33
8 22 0 29 -5 29 -19 0 -11 -4 -21 -9 -23 -5 -2 -28 -19 -51 -38 -67 -55 -92
-60 -325 -60 -156 0 -228 4 -280 16 -39 9 -90 19 -115 24 -49 8 -150 40 -205
65 -19 8 -52 22 -72 31 -77 33 -128 60 -150 81 -8 7 -27 20 -43 30 -17 9 -30
21 -30 25 0 4 -6 8 -14 8 -19 0 -167 146 -191 188 -11 17 -23 32 -27 32 -4 0
-8 8 -8 18 0 10 -5 23 -12 30 -9 9 -9 12 0 12 7 0 12 6 12 14 0 18 22 27 35
15 5 -5 35 -9 67 -9z m7138 -110 c0 -5 -4 -10 -10 -10 -5 0 -10 5 -10 10 0 6
5 10 10 10 6 0 10 -4 10 -10z m20 -17 c0 -2 -9 -13 -20 -25 -17 -19 -20 -19
-20 -5 0 9 -4 17 -10 17 -5 0 -10 4 -10 8 0 5 14 9 30 9 17 0 30 -2 30 -4z
m-1900 -58 c0 -8 -4 -15 -10 -15 -5 0 -7 7 -4 15 4 8 8 15 10 15 2 0 4 -7 4
-15z m-160 -125 c0 -5 -4 -10 -10 -10 -5 0 -10 5 -10 10 0 6 5 10 10 10 6 0
10 -4 10 -10z m-4840 -745 c0 -19 -32 -36 -49 -25 -11 6 -11 11 0 24 18 19 49
21 49 1z"/>
<path d="M4940 9290 c0 -5 5 -10 10 -10 6 0 10 5 10 10 0 6 -4 10 -10 10 -5 0
-10 -4 -10 -10z"/>
<path d="M9080 7731 c0 -11 4 -23 10 -26 6 -4 9 5 8 19 -3 30 -18 35 -18 7z"/>
<path d="M9300 7650 c0 -5 5 -10 10 -10 6 0 10 5 10 10 0 6 -4 10 -10 10 -5 0
-10 -4 -10 -10z"/>
<path d="M8905 6950 c-8 -13 3 -30 20 -30 11 0 13 -8 8 -32 l-6 -33 21 24 c15
17 28 22 44 18 21 -5 21 -5 6 7 -10 7 -18 18 -18 25 0 6 -9 11 -20 11 -11 0
-20 5 -20 10 0 6 -6 10 -14 10 -8 0 -18 -4 -21 -10z"/>
<path d="M9340 6910 c0 -5 5 -10 10 -10 6 0 10 5 10 10 0 6 -4 10 -10 10 -5 0
-10 -4 -10 -10z"/>
<path d="M8740 6836 c0 -9 5 -16 10 -16 6 0 10 4 10 9 0 6 -4 13 -10 16 -5 3
-10 -1 -10 -9z"/>
<path d="M8700 6815 c-8 -9 -8 -15 -2 -15 12 0 26 19 19 26 -2 2 -10 -2 -17
-11z"/>
<path d="M9339 6663 c-5 -13 -9 -31 -9 -39 0 -16 26 -19 35 -4 4 6 11 8 16 4
6 -3 13 3 16 14 6 23 40 36 47 18 2 -6 5 -3 5 7 1 9 -2 17 -6 18 -5 1 -27 2
-51 4 -38 2 -45 -1 -53 -22z"/>
<path d="M9020 6650 c0 -5 5 -10 11 -10 5 0 7 5 4 10 -3 6 -8 10 -11 10 -2 0
-4 -4 -4 -10z"/>
<path d="M9160 6631 c0 -6 -9 -11 -20 -11 -11 0 -20 -4 -20 -10 0 -5 -13 -10
-30 -10 -16 0 -30 -4 -30 -10 0 -14 -33 -13 -48 2 -9 9 -12 9 -12 0 0 -7 5
-12 10 -12 6 0 10 -4 10 -10 0 -5 -8 -10 -17 -10 -10 0 -26 -14 -35 -31 -19
-33 -23 -54 -10 -45 5 3 9 -1 9 -9 0 -8 -5 -11 -10 -8 -5 3 -8 0 -5 -7 9 -27
35 -35 78 -24 23 7 40 7 40 2 0 -5 5 -6 11 -2 8 4 7 9 -2 15 -7 4 -17 5 -21 3
-16 -10 -7 13 11 30 15 14 24 15 39 7 16 -9 21 -7 25 9 3 11 13 18 24 17 15
-1 18 -7 15 -25 -3 -15 -1 -23 5 -19 16 10 14 67 -3 67 -9 0 -14 11 -14 30 0
17 5 30 10 30 6 0 10 6 10 14 0 8 -4 18 -10 21 -5 3 -10 1 -10 -4z"/>
<path d="M9441 6614 c0 -11 3 -14 6 -6 3 7 2 16 -1 19 -3 4 -6 -2 -5 -13z"/>
<path d="M9170 6450 c0 -5 5 -10 10 -10 6 0 10 5 10 10 0 6 -4 10 -10 10 -5 0
-10 -4 -10 -10z"/>
<path d="M9150 6419 c0 -5 4 -8 9 -5 5 4 11 1 13 -6 5 -14 38 -4 38 12 0 5
-13 10 -30 10 -16 0 -30 -5 -30 -11z"/>
<path d="M6537 6286 c-19 -14 -23 -36 -7 -36 6 0 10 6 10 14 0 8 6 16 13 19 6
2 10 7 7 10 -3 3 -13 0 -23 -7z"/>
<path d="M9689 6056 c-25 -12 -37 -42 -22 -57 10 -10 73 29 73 46 0 19 -24 25
-51 11z"/>
<path d="M9642 5815 c-28 -32 -28 -35 7 -35 38 0 59 24 38 45 -20 19 -20 19
-45 -10z"/>
<path d="M10105 5730 c-3 -5 -1 -10 4 -10 6 0 11 -8 11 -17 0 -13 3 -14 11 -6
13 13 5 43 -10 43 -5 0 -13 -4 -16 -10z"/>
<path d="M6403 5563 c-58 -11 -50 -48 27 -120 68 -65 110 -55 89 21 -9 32 -72
108 -87 105 -4 -1 -17 -4 -29 -6z"/>
<path d="M9924 5555 c-16 -12 -16 -13 4 -24 31 -16 52 -13 52 8 0 23 -33 33
-56 16z"/>
<path d="M9189 5333 c-7 -20 -6 -30 5 -41 17 -18 30 -10 49 28 17 33 13 40
-20 40 -16 0 -27 -8 -34 -27z"/>
<path d="M9653 5353 c-7 -2 -13 -16 -13 -30 0 -35 34 -27 38 10 3 27 -1 30
-25 20z"/>
<path d="M6160 5270 c0 -5 5 -10 10 -10 6 0 10 5 10 10 0 6 -4 10 -10 10 -5 0
-10 -4 -10 -10z"/>
<path d="M8745 4560 c3 -5 8 -10 11 -10 2 0 4 5 4 10 0 6 -5 10 -11 10 -5 0
-7 -4 -4 -10z"/>
<path d="M8670 4495 c-7 -9 -11 -18 -8 -20 7 -8 38 5 38 15 0 17 -18 19 -30 5z"/>
<path d="M8405 3830 c-3 -5 3 -10 14 -10 12 0 21 5 21 10 0 6 -6 10 -14 10 -8
0 -18 -4 -21 -10z"/>
<path d="M8398 3698 c-26 -32 -23 -58 6 -58 13 0 27 6 29 13 4 10 6 10 6 0 1
-15 47 -17 56 -3 3 6 -3 10 -14 10 -13 0 -21 9 -26 30 -8 36 -32 39 -57 8z"/>
<path d="M8500 3590 c0 -5 5 -10 10 -10 6 0 10 5 10 10 0 6 -4 10 -10 10 -5 0
-10 -4 -10 -10z"/>
<path d="M8332 3558 c-18 -18 -14 -30 8 -23 16 5 20 2 20 -14 0 -27 8 -26 31
0 17 20 20 20 34 5 20 -19 35 -13 35 15 0 16 -7 19 -44 19 -24 0 -50 2 -58 5
-7 3 -19 0 -26 -7z"/>
<path d="M8167 3413 c-9 -9 -9 -43 1 -43 11 0 32 37 25 44 -8 8 -18 8 -26 -1z"/>
<path d="M8670 3360 c-12 -8 -13 -13 -2 -30 6 -11 12 -31 12 -45 0 -20 5 -25
25 -25 20 0 27 6 32 30 3 17 9 30 14 30 14 0 11 30 -3 34 -39 12 -65 14 -78 6z"/>
<path d="M8600 3310 c0 -5 5 -10 10 -10 6 0 10 5 10 10 0 6 -4 10 -10 10 -5 0
-10 -4 -10 -10z"/>
<path d="M8600 3260 c0 -13 7 -20 20 -20 24 0 25 6 6 26 -20 19 -26 18 -26 -6z"/>
<path d="M8707 3193 c-10 -9 -9 -53 1 -53 14 0 32 23 32 42 0 18 -20 25 -33
11z"/>
<path d="M8585 3170 c-3 -5 -1 -10 4 -10 6 0 11 5 11 10 0 6 -2 10 -4 10 -3 0
-8 -4 -11 -10z"/>
<path d="M8745 3050 c-3 -5 -1 -10 4 -10 6 0 11 5 11 10 0 6 -2 10 -4 10 -3 0
-8 -4 -11 -10z"/>
<path d="M8606 2571 c-4 -7 -5 -15 -2 -18 9 -9 19 4 14 18 -4 11 -6 11 -12 0z"/>
<path d="M5200 2365 c0 -8 5 -15 10 -15 6 0 10 7 10 15 0 8 -4 15 -10 15 -5 0
-10 -7 -10 -15z"/>
<path d="M5160 2350 c0 -5 5 -10 10 -10 6 0 10 5 10 10 0 6 -4 10 -10 10 -5 0
-10 -4 -10 -10z"/>
<path d="M4670 2206 c0 -8 -3 -21 -6 -30 -4 -11 0 -16 14 -16 11 0 23 7 26 16
8 22 8 22 -14 34 -16 8 -20 8 -20 -4z"/>
<path d="M5200 5560 c0 -11 5 -20 10 -20 6 0 10 9 10 20 0 11 -4 20 -10 20 -5
0 -10 -9 -10 -20z"/>
<path d="M5140 5510 c0 -5 5 -10 10 -10 6 0 10 5 10 10 0 6 -4 10 -10 10 -5 0
-10 -4 -10 -10z"/>
<path d="M5000 5330 c0 -5 5 -10 10 -10 6 0 10 5 10 10 0 6 -4 10 -10 10 -5 0
-10 -4 -10 -10z"/>
<path d="M4900 5245 c0 -13 8 -32 27 -64 4 -6 43 40 43 50 0 11 -34 29 -54 29
-9 0 -16 -7 -16 -15z"/>
<path d="M4635 5065 c-3 -8 -7 -22 -10 -30 -2 -8 -2 -15 1 -15 12 0 34 29 34
44 0 20 -19 21 -25 1z"/>
<path d="M4326 4614 c-29 -30 -38 -67 -10 -43 15 12 48 69 41 69 -3 0 -16 -12
-31 -26z"/>
<path d="M4400 4627 c0 -22 11 -27 26 -12 19 19 18 25 -6 25 -11 0 -20 -6 -20
-13z"/>
<path d="M9950 4572 c0 -7 6 -15 14 -18 8 -3 12 -12 9 -20 -3 -8 -1 -14 5 -14
5 0 12 8 16 18 3 9 9 23 12 30 7 15 -17 12 -28 -3 -5 -6 -12 -4 -18 5 -7 11
-10 11 -10 2z"/>
<path d="M9830 4474 c0 -8 5 -12 10 -9 6 4 8 11 5 16 -9 14 -15 11 -15 -7z"/>
<path d="M9792 4435 c4 -23 29 -27 36 -6 3 9 0 11 -8 6 -7 -4 -16 -2 -22 6 -7
11 -8 9 -6 -6z"/>
<path d="M9825 4110 c3 -5 8 -10 11 -10 2 0 4 5 4 10 0 6 -5 10 -11 10 -5 0
-7 -4 -4 -10z"/>
<path d="M9710 4051 c0 -6 4 -12 8 -15 5 -3 9 1 9 9 0 8 -4 15 -9 15 -4 0 -8
-4 -8 -9z"/>
<path d="M5500 890 c0 -5 5 -10 10 -10 6 0 10 5 10 10 0 6 -4 10 -10 10 -5 0
-10 -4 -10 -10z"/>
<path d="M5423 813 c-38 -18 -46 -53 -13 -53 28 0 100 44 89 54 -15 13 -49 13
-76 -1z"/>
<path d="M3180 11130 c0 -5 5 -10 10 -10 6 0 10 5 10 10 0 6 -4 10 -10 10 -5
0 -10 -4 -10 -10z"/>
<path d="M1620 11090 c0 -5 5 -10 10 -10 6 0 10 5 10 10 0 6 -4 10 -10 10 -5
0 -10 -4 -10 -10z"/>
<path d="M1577 11066 c-4 -10 -1 -13 9 -9 7 3 14 9 14 14 0 14 -17 10 -23 -5z"/>
<path d="M1682 11029 c2 -6 8 -10 13 -10 5 0 11 4 13 10 2 6 -4 11 -13 11 -9
0 -15 -5 -13 -11z"/>
<path d="M3340 10990 c0 -5 5 -10 10 -10 6 0 10 5 10 10 0 6 -4 10 -10 10 -5
0 -10 -4 -10 -10z"/>
<path d="M3320 10940 c0 -11 5 -20 10 -20 6 0 10 9 10 20 0 11 -4 20 -10 20
-5 0 -10 -9 -10 -20z"/>
<path d="M3020 10850 c0 -5 5 -10 10 -10 6 0 10 5 10 10 0 6 -4 10 -10 10 -5
0 -10 -4 -10 -10z"/>
<path d="M3160 10794 c0 -14 4 -23 10 -19 6 3 10 15 10 26 0 10 -4 19 -10 19
-5 0 -10 -12 -10 -26z"/>
<path d="M2986 10741 c-4 -7 -5 -15 -2 -18 9 -9 19 4 14 18 -4 11 -6 11 -12 0z"/>
<path d="M1305 10190 c4 -6 11 -8 16 -5 14 9 11 15 -7 15 -8 0 -12 -5 -9 -10z"/>
<path d="M520 10050 c0 -5 -6 -10 -12 -10 -17 0 -73 -48 -65 -56 3 -3 15 -1
26 6 12 6 31 10 44 9 48 -4 75 2 81 18 5 11 1 22 -10 30 -21 15 -64 17 -64 3z"/>
<path d="M1982 10010 c2 -24 7 -30 26 -30 27 0 59 27 46 39 -5 5 -24 11 -42
14 -31 6 -32 5 -30 -23z"/>
<path d="M1580 10010 c0 -5 14 -10 30 -10 17 0 30 5 30 10 0 6 -13 10 -30 10
-16 0 -30 -4 -30 -10z"/>
<path d="M1720 9990 c0 -5 5 -10 10 -10 6 0 10 5 10 10 0 6 -4 10 -10 10 -5 0
-10 -4 -10 -10z"/>
<path d="M1948 9993 c-19 -5 -24 -38 -8 -48 13 -8 37 16 37 38 0 9 -3 16 -6
16 -3 -1 -14 -3 -23 -6z"/>
<path d="M1405 9950 c-8 -13 9 -20 24 -11 10 6 9 10 -3 14 -8 3 -18 2 -21 -3z"/>
<path d="M1595 9930 c3 -5 15 -10 26 -10 10 0 19 5 19 10 0 6 -12 10 -26 10
-14 0 -23 -4 -19 -10z"/>
<path d="M3520 9880 c0 -11 5 -20 10 -20 6 0 10 9 10 20 0 11 -4 20 -10 20 -5
0 -10 -9 -10 -20z"/>
<path d="M3553 9853 c-18 -7 -16 -50 3 -57 24 -9 24 -9 24 29 0 35 -3 38 -27
28z"/>
<path d="M1622 9841 c2 -7 7 -12 11 -12 12 1 9 15 -3 20 -7 2 -11 -2 -8 -8z"/>
<path d="M3320 9800 c0 -11 5 -20 10 -20 6 0 10 9 10 20 0 11 -4 20 -10 20 -5
0 -10 -9 -10 -20z"/>
<path d="M1490 9685 c-9 -11 -8 -18 8 -35 23 -25 32 -16 25 23 -6 30 -15 34
-33 12z"/>
<path d="M2820 9635 c0 -8 5 -15 10 -15 6 0 10 7 10 15 0 8 -4 15 -10 15 -5 0
-10 -7 -10 -15z"/>
<path d="M794 9609 c-15 -17 -16 -22 -4 -29 14 -9 50 13 50 30 0 18 -30 17
-46 -1z"/>
<path d="M1340 9581 c0 -12 12 -25 30 -33 17 -7 30 -18 30 -24 0 -7 13 -26 30
-44 l29 -31 31 17 c16 10 30 25 30 34 0 17 -43 40 -77 40 -14 0 -23 6 -23 16
0 8 -16 22 -35 30 -44 18 -45 18 -45 -5z"/>
<path d="M480 9545 c0 -25 8 -44 25 -60 32 -33 35 -32 35 10 0 46 -19 85 -42
85 -14 0 -18 -8 -18 -35z"/>
<path d="M1547 9553 c-11 -10 13 -33 34 -33 23 0 24 7 5 26 -16 15 -29 18 -39
7z"/>
<path d="M2557 9533 c-6 -31 -1 -41 12 -27 14 14 17 47 5 51 -6 2 -14 -9 -17
-24z"/>
<path d="M2013 9530 c-35 -21 -47 -58 -15 -45 9 4 27 10 40 12 29 7 30 -20 1
-50 -17 -19 -18 -23 -5 -25 9 -2 23 4 32 12 19 20 29 20 47 2 16 -16 61 -25
65 -13 6 20 0 37 -13 37 -9 0 -36 20 -62 45 -25 25 -48 45 -52 45 -3 0 -21 -9
-38 -20z"/>
<path d="M2320 9511 c0 -6 -7 -11 -15 -11 -16 0 -65 -39 -65 -52 0 -4 9 -8 20
-8 11 0 20 5 20 10 0 6 14 10 30 10 17 0 30 5 30 10 0 6 14 10 31 10 24 0 30
4 27 18 -2 12 -14 18 -41 20 -21 2 -37 -1 -37 -7z"/>
<path d="M570 9470 c-12 -8 -11 -10 8 -10 12 0 22 5 22 10 0 13 -11 13 -30 0z"/>
<path d="M622 9434 c-20 -21 -21 -26 -8 -39 21 -21 58 -19 84 5 25 24 27 31
10 48 -19 19 -61 13 -86 -14z"/>
<path d="M2215 9369 c-10 -15 3 -25 16 -12 7 7 7 13 1 17 -6 3 -14 1 -17 -5z"/>
<path d="M1205 9350 c3 -5 8 -10 11 -10 2 0 4 5 4 10 0 6 -5 10 -11 10 -5 0
-7 -4 -4 -10z"/>
<path d="M1996 9331 c-16 -25 26 -111 54 -111 6 0 10 -18 10 -40 0 -53 18 -52
69 2 35 36 39 45 33 77 -9 56 -41 81 -106 81 -30 0 -57 -4 -60 -9z"/>
<path d="M756 9263 c-4 -9 -3 -20 2 -25 14 -14 42 2 42 23 0 24 -35 26 -44 2z"/>
<path d="M1902 9133 c3 -64 4 -68 28 -71 14 -2 34 3 44 11 19 14 19 15 -2 49
-25 41 -57 78 -66 78 -4 0 -6 -30 -4 -67z"/>
<path d="M780 9170 c0 -5 -11 -10 -25 -10 -30 0 -51 -41 -36 -68 9 -15 10 -15
17 3 4 11 21 35 37 53 17 17 26 32 19 32 -7 0 -12 -4 -12 -10z"/>
<path d="M5020 9090 c0 -5 5 -10 10 -10 6 0 10 5 10 10 0 6 -4 10 -10 10 -5 0
-10 -4 -10 -10z"/>
<path d="M5580 9060 c0 -5 -8 -19 -17 -29 -12 -14 -21 -17 -33 -11 -14 8 -16
5 -12 -15 2 -14 8 -25 13 -25 5 0 9 -8 9 -17 0 -10 4 -25 10 -33 8 -12 12 -12
37 0 15 8 34 20 41 27 19 18 14 57 -8 71 -11 7 -20 19 -20 27 0 8 -4 15 -10
15 -5 0 -10 -4 -10 -10z"/>
<path d="M4980 9050 c0 -5 5 -10 10 -10 6 0 10 5 10 10 0 6 -4 10 -10 10 -5 0
-10 -4 -10 -10z"/>
<path d="M760 9040 c0 -5 5 -10 10 -10 6 0 10 5 10 10 0 6 -4 10 -10 10 -5 0
-10 -4 -10 -10z"/>
<path d="M60 9015 c0 -25 14 -34 24 -16 8 12 -3 41 -15 41 -5 0 -9 -11 -9 -25z"/>
<path d="M0 8980 c0 -28 4 -40 14 -40 21 0 30 20 17 33 -6 6 -11 19 -11 29 0
10 -4 18 -10 18 -5 0 -10 -18 -10 -40z"/>
<path d="M5813 8985 c-20 -22 -16 -45 7 -45 16 0 20 7 20 30 0 33 -8 37 -27
15z"/>
<path d="M2533 8983 c-24 -9 -13 -23 17 -23 32 0 40 14 14 24 -9 3 -16 6 -17
5 -1 0 -8 -3 -14 -6z"/>
<path d="M4860 8972 c0 -10 22 -32 32 -32 4 0 8 9 8 20 0 13 -7 20 -20 20 -11
0 -20 -4 -20 -8z"/>
<path d="M5700 8970 c0 -5 5 -10 10 -10 6 0 10 5 10 10 0 6 -4 10 -10 10 -5 0
-10 -4 -10 -10z"/>
<path d="M6140 8970 c0 -5 9 -10 20 -10 11 0 20 5 20 10 0 6 -9 10 -20 10 -11
0 -20 -4 -20 -10z"/>
<path d="M1900 8950 c0 -5 5 -10 10 -10 6 0 10 5 10 10 0 6 -4 10 -10 10 -5 0
-10 -4 -10 -10z"/>
<path d="M5913 8945 c-13 -14 -18 -45 -8 -45 3 0 17 11 30 25 14 13 25 27 25
30 0 11 -35 4 -47 -10z"/>
<path d="M6213 8945 c-18 -20 -16 -25 7 -25 11 0 20 -4 20 -10 0 -5 5 -10 10
-10 15 0 12 29 -4 46 -17 17 -18 17 -33 -1z"/>
<path d="M6131 8883 c-27 -28 -31 -37 -20 -44 20 -12 24 -11 50 11 21 17 22
21 9 31 -11 8 -12 12 -2 16 13 5 17 23 5 22 -5 0 -23 -16 -42 -36z"/>
<path d="M4953 8885 c-15 -17 -17 -45 -3 -45 6 0 10 9 10 20 0 11 5 20 10 20
6 0 10 5 10 10 0 14 -13 12 -27 -5z"/>
<path d="M1696 8844 c-5 -14 17 -43 34 -44 16 0 31 20 28 36 -4 25 -53 32 -62
8z"/>
<path d="M5780 8840 c0 -24 6 -25 26 -6 19 20 18 26 -6 26 -13 0 -20 -7 -20
-20z"/>
<path d="M6260 8850 c0 -5 5 -10 10 -10 6 0 10 5 10 10 0 6 -4 10 -10 10 -5 0
-10 -4 -10 -10z"/>
<path d="M5420 8830 c0 -5 5 -10 10 -10 6 0 10 5 10 10 0 6 -4 10 -10 10 -5 0
-10 -4 -10 -10z"/>
<path d="M5860 8830 c0 -5 5 -10 10 -10 6 0 10 5 10 10 0 6 -4 10 -10 10 -5 0
-10 -4 -10 -10z"/>
<path d="M5940 8830 c0 -5 5 -10 10 -10 6 0 10 5 10 10 0 6 -4 10 -10 10 -5 0
-10 -4 -10 -10z"/>
<path d="M6193 8825 c-15 -17 -17 -45 -3 -45 6 0 10 9 10 20 0 13 7 20 20 20
11 0 20 5 20 10 0 15 -33 11 -47 -5z"/>
<path d="M1871 8806 c-10 -12 -8 -17 6 -25 11 -5 25 -6 33 -1 11 7 10 11 -3
24 -19 20 -22 20 -36 2z"/>
<path d="M4940 8810 c0 -5 5 -10 10 -10 6 0 10 5 10 10 0 6 -4 10 -10 10 -5 0
-10 -4 -10 -10z"/>
<path d="M5220 8805 c0 -17 2 -18 24 -9 23 9 20 24 -4 24 -11 0 -20 -7 -20
-15z"/>
<path d="M4915 8790 c-8 -13 3 -50 16 -50 5 0 9 9 9 20 0 11 0 23 1 27 1 12
-19 15 -26 3z"/>
<path d="M5071 8784 c-7 -8 -11 -18 -7 -21 9 -10 36 6 36 22 0 19 -11 19 -29
-1z"/>
<path d="M5000 8760 c0 -11 5 -20 10 -20 6 0 10 9 10 20 0 11 -4 20 -10 20 -5
0 -10 -9 -10 -20z"/>
<path d="M5993 8773 c-13 -5 -19 -33 -7 -33 3 0 12 6 20 14 23 23 17 32 -13
19z"/>
<path d="M6380 8770 c0 -5 5 -10 10 -10 6 0 10 5 10 10 0 6 -4 10 -10 10 -5 0
-10 -4 -10 -10z"/>
<path d="M1540 8752 c0 -10 22 -32 32 -32 15 0 8 28 -8 34 -21 8 -24 8 -24 -2z"/>
<path d="M4445 8721 c-3 -5 -1 -12 5 -16 5 -3 10 1 10 9 0 18 -6 21 -15 7z"/>
<path d="M5220 8710 c0 -5 5 -10 10 -10 6 0 10 5 10 10 0 6 -4 10 -10 10 -5 0
-10 -4 -10 -10z"/>
<path d="M5280 8635 c0 -14 5 -25 10 -25 6 0 10 11 10 25 0 14 -4 25 -10 25
-5 0 -10 -11 -10 -25z"/>
<path d="M5360 8620 c0 -46 10 -51 27 -13 9 19 10 30 2 40 -20 23 -29 14 -29
-27z"/>
<path d="M2264 8612 c-3 -9 -10 -27 -15 -40 -15 -37 -11 -63 14 -85 15 -13 18
-21 10 -24 -22 -8 -15 -43 7 -43 15 0 20 7 20 29 0 48 55 56 114 16 38 -26 66
-32 66 -15 0 6 -9 10 -20 10 -13 0 -20 7 -20 20 0 14 -11 22 -37 29 -21 6 -42
11 -46 11 -12 0 -37 27 -37 39 0 19 -23 60 -37 65 -8 3 -16 -2 -19 -12z"/>
<path d="M1232 8600 c-10 -17 -10 -20 6 -20 19 0 56 -43 57 -69 4 -51 4 -51
51 -51 46 0 77 -18 72 -41 -2 -7 6 -15 17 -17 11 -2 23 -9 27 -16 5 -8 10 -8
19 1 13 13 4 33 -16 33 -10 0 -12 9 -8 34 4 28 2 35 -16 41 -11 3 -37 1 -56
-6 -31 -12 -36 -11 -50 7 -8 10 -15 27 -15 37 0 35 -38 86 -65 87 -6 0 -16 -9
-23 -20z"/>
<path d="M5461 8600 c-25 -21 -34 -80 -13 -87 6 -3 12 0 12 7 0 6 9 20 20 32
20 22 28 68 12 68 -5 0 -19 -9 -31 -20z"/>
<path d="M6400 8611 c0 -5 -13 -12 -29 -16 -23 -5 -33 -15 -41 -41 -6 -19 -16
-34 -21 -34 -5 0 -9 -14 -9 -31 0 -29 2 -31 27 -26 15 3 38 1 52 -5 34 -12 98
8 104 33 3 11 1 17 -4 13 -5 -3 -9 0 -9 6 0 6 -4 9 -8 6 -4 -2 -14 0 -22 5
-13 8 -13 10 -1 18 9 6 11 18 7 35 -4 15 -2 26 4 26 5 0 10 -9 10 -20 0 -11 5
-20 10 -20 6 0 10 14 10 30 0 28 -2 30 -40 30 -22 0 -40 -4 -40 -9z"/>
<path d="M6512 8592 c-14 -31 -16 -62 -2 -62 5 0 19 10 32 23 13 13 31 26 41
30 31 12 19 33 -21 34 -31 2 -39 -3 -50 -25z"/>
<path d="M5822 8591 c-28 -23 -33 -107 -6 -97 9 3 22 6 30 6 8 0 14 6 14 13 0
7 9 23 21 36 l21 22 -23 20 c-27 24 -31 24 -57 0z"/>
<path d="M2460 8590 c0 -5 5 -10 10 -10 6 0 10 5 10 10 0 6 -4 10 -10 10 -5 0
-10 -4 -10 -10z"/>
<path d="M5280 8590 c0 -5 5 -10 10 -10 6 0 10 5 10 10 0 6 -4 10 -10 10 -5 0
-10 -4 -10 -10z"/>
<path d="M5520 8590 c0 -5 5 -10 10 -10 6 0 10 5 10 10 0 6 -4 10 -10 10 -5 0
-10 -4 -10 -10z"/>
<path d="M6120 8560 c0 -11 5 -20 10 -20 6 0 10 9 10 20 0 11 -4 20 -10 20 -5
0 -10 -9 -10 -20z"/>
<path d="M6240 8530 c0 -5 5 -10 10 -10 6 0 10 5 10 10 0 6 -4 10 -10 10 -5 0
-10 -4 -10 -10z"/>
<path d="M7275 8490 c-3 -5 1 -10 9 -10 9 0 16 5 16 10 0 6 -4 10 -9 10 -6 0
-13 -4 -16 -10z"/>
<path d="M6588 8483 c-21 -5 -24 -23 -4 -23 8 0 16 7 20 15 3 8 4 14 3 14 -1
-1 -10 -3 -19 -6z"/>
<path d="M5580 8470 c0 -5 5 -10 10 -10 6 0 10 5 10 10 0 6 -4 10 -10 10 -5 0
-10 -4 -10 -10z"/>
<path d="M6213 8461 c-10 -16 -9 -20 3 -25 23 -9 24 -8 24 19 0 30 -11 32 -27
6z"/>
<path d="M5520 8451 c0 -11 26 -22 34 -14 12 12 5 23 -14 23 -11 0 -20 -4 -20
-9z"/>
<path d="M4822 8438 c-17 -21 8 -43 51 -44 34 -1 48 8 30 19 -5 2 -3 2 4 1 7
-2 15 1 18 5 2 5 -10 11 -28 13 -17 3 -39 8 -48 12 -9 4 -21 1 -27 -6z"/>
<path d="M3427 8433 c-11 -11 -8 -173 3 -173 6 0 10 37 10 90 0 90 -1 96 -13
83z"/>
<path d="M4931 8411 c-12 -8 -12 -12 2 -25 20 -20 27 -20 27 -1 0 8 -5 15 -11
15 -5 0 -7 5 -4 10 8 12 4 12 -14 1z"/>
<path d="M5820 8410 c0 -5 5 -10 11 -10 5 0 7 5 4 10 -3 6 -8 10 -11 10 -2 0
-4 -4 -4 -10z"/>
<path d="M5540 8395 c0 -8 -4 -15 -10 -15 -5 0 -10 -9 -10 -20 0 -11 5 -20 10
-20 6 0 10 -9 10 -21 0 -30 34 -20 39 11 1 14 8 28 14 32 8 5 5 13 -7 27 -22
25 -46 27 -46 6z"/>
<path d="M2200 8394 c0 -3 6 -12 14 -20 21 -21 46 -17 46 6 0 16 -7 20 -30 20
-16 0 -30 -3 -30 -6z"/>
<path d="M4760 8390 c0 -5 -9 -10 -20 -10 -24 0 -27 -28 -4 -37 8 -3 13 -12
10 -20 -3 -8 1 -22 10 -30 14 -15 18 -14 38 8 20 22 25 66 7 54 -5 -2 -6 7 -3
20 3 20 0 25 -17 25 -11 0 -21 -4 -21 -10z"/>
<path d="M6068 8380 c-7 -11 -20 -20 -29 -20 -12 0 -16 -14 -17 -76 -1 -70 0
-75 18 -69 13 4 23 -1 32 -14 18 -29 42 -26 59 5 8 15 35 48 61 73 40 39 48
52 48 84 0 41 -4 44 -27 21 -11 -10 -19 -12 -26 -5 -5 5 -23 7 -38 4 -18 -3
-29 -1 -29 6 0 19 -39 12 -52 -9z"/>
<path d="M5960 8369 c0 -5 5 -7 10 -4 6 3 10 8 10 11 0 2 -4 4 -10 4 -5 0 -10
-5 -10 -11z"/>
<path d="M5396 8358 c3 -4 11 -5 19 -1 21 7 19 12 -4 10 -11 0 -18 -5 -15 -9z"/>
<path d="M5219 8353 c-1 -4 -1 -12 0 -16 1 -4 -5 -15 -14 -23 -25 -26 -10 -60
22 -50 16 5 20 15 19 48 -1 23 -7 43 -14 46 -7 2 -13 0 -13 -5z"/>
<path d="M800 8330 c0 -5 6 -10 14 -10 8 0 18 5 21 10 3 6 -3 10 -14 10 -12 0
-21 -4 -21 -10z"/>
<path d="M720 8300 c0 -13 7 -20 20 -20 13 0 20 7 20 20 0 13 -7 20 -20 20
-13 0 -20 -7 -20 -20z"/>
<path d="M5720 8310 c0 -5 9 -10 20 -10 11 0 20 5 20 10 0 6 -9 10 -20 10 -11
0 -20 -4 -20 -10z"/>
<path d="M5441 8253 c-12 -14 -20 -27 -17 -30 3 -4 14 4 25 15 10 12 21 22 25
22 11 0 6 -38 -6 -42 -15 -5 11 -95 30 -103 7 -2 11 -1 8 3 -2 4 2 16 10 27
12 16 16 17 23 6 5 -7 14 -10 20 -7 16 10 13 2 -8 -22 -10 -12 -25 -22 -33
-22 -7 0 -14 -9 -15 -20 -2 -28 8 -25 36 10 13 17 29 29 35 28 22 -3 66 26 66
44 0 10 5 18 10 18 19 0 10 19 -22 49 -40 37 -46 38 -54 6 -4 -16 -12 -24 -23
-23 -9 2 -15 -3 -13 -9 1 -7 -5 -13 -14 -13 -13 0 -14 3 -4 15 7 8 9 26 5 43
-5 23 -11 29 -33 29 -15 0 -37 -11 -51 -24z"/>
<path d="M1880 8251 c0 -5 -9 -11 -20 -14 -14 -3 -20 -14 -20 -31 0 -21 5 -26
25 -26 14 0 28 7 31 15 4 10 15 12 35 8 23 -4 29 -2 29 12 0 10 -8 24 -17 31
-20 15 -63 19 -63 5z"/>
<path d="M5773 8253 c-7 -2 -13 -18 -13 -34 0 -25 3 -29 23 -25 68 15 72 14
75 -31 2 -26 -1 -43 -7 -43 -6 0 -11 -16 -11 -35 0 -19 5 -35 10 -35 6 0 10 7
10 15 0 8 5 15 10 15 6 0 10 13 10 29 0 17 5 33 10 36 19 12 11 63 -10 70 -11
3 -20 13 -20 21 0 10 -7 13 -24 8 -13 -3 -27 -1 -30 5 -8 12 -14 12 -33 4z"/>
<path d="M5940 8250 c0 -5 5 -10 10 -10 6 0 10 5 10 10 0 6 -4 10 -10 10 -5 0
-10 -4 -10 -10z"/>
<path d="M5026 8236 c7 -19 38 -22 32 -3 -3 6 -12 13 -21 15 -12 2 -15 -1 -11
-12z"/>
<path d="M5700 8230 c0 -5 5 -10 10 -10 6 0 10 5 10 10 0 6 -4 10 -10 10 -5 0
-10 -4 -10 -10z"/>
<path d="M2780 8190 c0 -32 1 -33 24 -24 24 9 21 54 -4 54 -16 0 -20 -7 -20
-30z"/>
<path d="M2098 8168 c-31 -34 -32 -37 -19 -57 13 -20 41 9 41 43 0 14 5 26 10
26 6 0 10 5 10 10 0 17 -14 10 -42 -22z"/>
<path d="M5940 8190 c0 -5 5 -10 10 -10 6 0 10 5 10 10 0 6 -4 10 -10 10 -5 0
-10 -4 -10 -10z"/>
<path d="M1555 8170 c-3 -5 -1 -10 4 -10 6 0 11 5 11 10 0 6 -2 10 -4 10 -3 0
-8 -4 -11 -10z"/>
<path d="M4910 8136 c0 -30 15 -42 24 -20 10 27 7 44 -9 44 -9 0 -15 -9 -15
-24z"/>
<path d="M5233 8137 c-28 -28 -29 -48 -3 -65 13 -8 20 -8 20 -1 0 5 4 8 8 5
12 -7 64 43 57 55 -4 5 -10 7 -15 4 -4 -3 -10 2 -14 10 -8 21 -27 18 -53 -8z"/>
<path d="M3451 8124 c-18 -21 -6 -30 14 -11 8 9 15 18 15 21 0 11 -15 5 -29
-10z"/>
<path d="M5787 8133 c-4 -3 -7 -22 -7 -41 0 -27 3 -33 16 -28 9 3 18 6 20 6 2
0 4 16 4 35 0 33 -16 46 -33 28z"/>
<path d="M5933 8123 c-7 -2 -13 -13 -13 -24 0 -10 -4 -19 -10 -19 -5 0 -10 -4
-10 -10 0 -15 29 -12 46 4 15 15 20 57 7 55 -5 0 -14 -3 -20 -6z"/>
<path d="M2810 8110 c-8 -5 -27 -10 -41 -10 -31 0 -39 -15 -32 -54 6 -31 23
-30 40 5 7 13 23 26 35 29 13 3 24 14 26 23 4 19 -6 21 -28 7z"/>
<path d="M5460 8103 c0 -10 -3 -29 -5 -43 -3 -14 -2 -18 1 -10 4 8 10 17 14
20 14 9 15 43 3 47 -8 3 -13 -3 -13 -14z"/>
<path d="M3520 8050 c0 -5 4 -10 9 -10 6 0 13 5 16 10 3 6 -1 10 -9 10 -9 0
-16 -4 -16 -10z"/>
<path d="M5197 8034 c-8 -8 1 -24 14 -24 5 0 9 7 9 15 0 15 -12 20 -23 9z"/>
<path d="M3853 8023 c-7 -3 -13 -13 -13 -24 0 -14 7 -19 30 -19 17 0 30 -4 30
-10 0 -5 9 -10 20 -10 13 0 20 7 20 20 0 15 -7 20 -25 20 -14 0 -25 4 -25 9 0
11 -21 19 -37 14z"/>
<path d="M5461 7926 c2 -19 -3 -41 -10 -50 -9 -11 -10 -16 -2 -16 6 0 11 5 11
11 0 6 7 9 14 6 10 -4 13 -1 10 7 -3 7 2 19 10 26 9 7 13 16 10 21 -3 5 1 9 8
9 21 0 -14 20 -35 20 -15 0 -18 -7 -16 -34z"/>
<path d="M6060 7850 c0 -5 5 -10 10 -10 6 0 10 5 10 10 0 6 -4 10 -10 10 -5 0
-10 -4 -10 -10z"/>
<path d="M6140 7770 c0 -5 9 -10 20 -10 11 0 20 5 20 10 0 6 -9 10 -20 10 -11
0 -20 -4 -20 -10z"/>
<path d="M7810 7625 c-7 -9 -10 -18 -7 -21 10 -11 37 5 37 21 0 19 -14 19 -30
0z"/>
<path d="M1600 7610 c0 -5 5 -10 10 -10 6 0 10 5 10 10 0 6 -4 10 -10 10 -5 0
-10 -4 -10 -10z"/>
<path d="M6832 7601 c-7 -4 -12 -14 -10 -21 2 -7 -12 -20 -29 -29 -37 -18 -42
-31 -13 -31 11 0 20 5 20 10 0 6 12 21 26 34 27 22 31 53 6 37z"/>
<path d="M7096 7584 c-8 -21 -8 -24 5 -24 11 0 39 24 39 34 0 13 -38 5 -44
-10z"/>
<path d="M7450 7571 c-21 -4 -29 -9 -20 -12 22 -8 110 1 110 12 0 10 -36 10
-90 0z"/>
<path d="M7231 7544 c-7 -8 -11 -18 -8 -20 6 -7 47 18 47 28 0 13 -24 8 -39
-8z"/>
<path d="M8830 7456 c11 -11 50 -16 50 -5 0 3 -14 9 -30 11 -21 3 -27 1 -20
-6z"/>
<path d="M11629 4667 c-9 -12 -19 -32 -23 -44 -4 -13 -14 -23 -22 -23 -19 0
-37 -18 -57 -56 -8 -17 -27 -39 -41 -49 -14 -11 -26 -25 -26 -31 0 -6 -13 -25
-29 -42 -17 -17 -28 -38 -26 -49 15 -74 15 -73 45 -73 33 0 33 1 30 77 -2 50
0 55 39 92 23 22 41 47 41 55 0 9 5 16 10 16 6 0 10 8 10 19 0 12 9 20 25 23
13 3 22 1 19 -4 -9 -14 23 -38 50 -38 24 0 26 4 26 41 0 35 -2 40 -17 34 -22
-9 -73 -18 -55 -9 6 3 12 10 12 16 0 6 9 19 21 29 21 18 19 39 -4 39 -7 0 -19
-11 -28 -23z"/>
<path d="M11637 4467 c-6 -16 3 -66 13 -72 14 -9 50 33 50 59 0 22 -4 26 -29
26 -16 0 -31 -6 -34 -13z"/>
<path d="M11540 4351 c0 -16 -7 -34 -15 -41 -8 -7 -15 -19 -15 -26 0 -19 26
-18 34 1 3 8 12 15 19 15 17 0 38 45 31 65 -4 8 -17 15 -30 15 -20 0 -24 -5
-24 -29z"/>
<path d="M11687 4363 c-4 -3 -7 -15 -7 -26 0 -16 -2 -17 -15 -7 -13 11 -19 8
-40 -16 -14 -16 -25 -35 -25 -41 0 -7 0 -16 0 -20 0 -5 8 -8 17 -8 9 0 18 -6
21 -13 2 -7 -5 -12 -16 -12 -11 0 -22 6 -25 13 -5 16 -77 -61 -77 -84 0 -26
29 -31 52 -10 11 11 26 17 34 14 8 -3 14 1 14 11 0 9 5 16 10 16 6 0 10 -4 10
-10 0 -5 14 -10 30 -10 l30 0 0 105 c0 105 -1 111 -13 98z"/>
<path d="M11380 4270 c0 -5 5 -10 10 -10 6 0 10 5 10 10 0 6 -4 10 -10 10 -5
0 -10 -4 -10 -10z"/>
<path d="M10300 3330 c0 -5 5 -10 10 -10 6 0 10 5 10 10 0 6 -4 10 -10 10 -5
0 -10 -4 -10 -10z"/>
<path d="M10231 3284 c-7 -8 -10 -18 -6 -22 4 -4 10 -1 12 6 3 6 13 12 24 12
10 0 19 5 19 10 0 15 -33 11 -49 -6z"/>
<path d="M10140 3090 c0 -5 5 -10 10 -10 6 0 10 5 10 10 0 6 -4 10 -10 10 -5
0 -10 -4 -10 -10z"/>
<path d="M10180 3090 c0 -5 5 -10 10 -10 6 0 10 5 10 10 0 6 -4 10 -10 10 -5
0 -10 -4 -10 -10z"/>
<path d="M10280 3070 c0 -5 5 -10 11 -10 5 0 7 5 4 10 -3 6 -8 10 -11 10 -2 0
-4 -4 -4 -10z"/>
<path d="M10160 3010 c0 -5 5 -10 10 -10 6 0 10 5 10 10 0 6 -4 10 -10 10 -5
0 -10 -4 -10 -10z"/>
<path d="M10533 2643 c9 -2 23 -2 30 0 6 3 -1 5 -18 5 -16 0 -22 -2 -12 -5z"/>
<path d="M10461 1744 c0 -11 3 -14 6 -6 3 7 2 16 -1 19 -3 4 -6 -2 -5 -13z"/>
<path d="M10460 1700 c0 -11 5 -20 10 -20 6 0 10 9 10 20 0 11 -4 20 -10 20
-5 0 -10 -9 -10 -20z"/>
<path d="M9470 1277 c-23 -35 -30 -56 -20 -62 6 -4 10 4 10 16 0 12 7 31 17
41 9 10 14 20 12 23 -3 2 -11 -6 -19 -18z"/>
<path d="M9312 900 c-7 -11 -9 -20 -4 -20 4 0 13 9 20 20 7 11 9 20 4 20 -4 0
-13 -9 -20 -20z"/>
</g>
</svg>
